<svg width="264" height="400" viewBox="0 0 264 400" fill="none" xmlns="http://www.w3.org/2000/svg">
<mask id="mask0_855_15" style="mask-type:alpha" maskUnits="userSpaceOnUse" x="0" y="0" width="264" height="400">
<path d="M0 132C0 59.0984 59.0984 0 132 0V0C204.902 0 264 59.0984 264 132V400H0V132Z" fill="#014E3C"/>
</mask>
<g mask="url(#mask0_855_15)">
<rect width="264" height="400" fill="#075140"/>
<mask id="mask1_855_15" style="mask-type:alpha" maskUnits="userSpaceOnUse" x="-130" y="-16" width="394" height="193">
<rect x="264" y="176.896" width="394" height="192.896" transform="rotate(-180 264 176.896)" fill="#D9D9D9"/>
</mask>
<g mask="url(#mask1_855_15)">
<path d="M-36.3945 -41.0911L-35.9534 -41.0911C-35.9324 -41.0911 -35.9114 -41.0911 -35.9114 -41.0911L-35.3231 -41.0911C4.19427 -41.1331 36.6107 -72.0999 38.3545 -110.819L38.3545 -111.764L38.9637 -111.764L39.5729 -111.764L39.5729 -110.819C41.3167 -72.0999 73.7331 -41.1331 113.251 -41.091L113.839 -41.091C113.86 -41.091 113.881 -41.091 113.881 -41.091L114.322 -41.091C113.755 -0.460186 80.1828 32.4395 39.0057 32.4395C38.9847 32.4395 38.9637 32.4395 38.9427 32.4395C38.9217 32.4395 38.9007 32.4395 38.8797 32.4395C-2.2554 32.4395 -35.8273 -0.43919 -36.3945 -41.0911ZM38.3755 13.4896C29.5728 6.95588 23.9425 -1.82576 20.329 -10.5234C14.7827 -7.37206 8.37504 -5.56531 1.54721 -5.56531C-15.2598 -5.56532 -29.5247 -16.4268 -34.5038 -31.427C-29.2936 3.8676 1.37909 31.0949 38.3964 31.368L38.3964 13.4896L38.3755 13.4896ZM38.3755 -12.162C35.3922 -14.389 33.1023 -17.0781 31.3376 -19.9563C28.5434 -16.4478 25.14 -13.4436 21.2744 -11.0906C24.7198 -2.72914 30.077 5.73738 38.3545 12.103L38.3545 -12.162L38.3755 -12.162ZM112.473 -31.448C107.494 -16.4478 93.2083 -5.58632 76.4223 -5.58632C69.5945 -5.58632 63.1658 -7.39307 57.6405 -10.5444C54.027 -1.84677 48.3966 6.93488 39.594 13.4686L39.594 31.326C76.5903 31.0739 107.242 3.8466 112.473 -31.448ZM56.6741 -11.0906C52.8085 -13.4226 49.405 -16.4478 46.6109 -19.9563C44.8461 -17.0991 42.5562 -14.389 39.5729 -12.162L39.5729 12.124C47.8714 5.73738 53.2076 -2.70813 56.6741 -11.0906ZM64.0481 -42.9608C64.0481 -42.7297 64.3633 -27.4564 58.0397 -11.5528C63.4599 -8.46451 69.7205 -6.67877 76.4223 -6.67877C95.6663 -6.67877 111.486 -21.3428 113.103 -39.9776C94.3427 -40.0406 77.1786 -46.9735 64.0481 -58.3602L64.0481 -42.9608ZM52.5353 -42.0575C52.5353 -41.9104 52.7664 -30.7338 47.2201 -20.9437C49.9513 -17.4352 53.2917 -14.431 57.0943 -12.099C63.2498 -27.7085 62.9556 -42.6877 62.9556 -42.9398L62.9556 -59.3266C59.09 -62.8141 55.6026 -66.7007 52.5353 -70.9024L52.5353 -42.0575ZM39.5729 -43.1499C39.5729 -35.2296 42.136 -27.9186 46.4848 -21.9311C51.632 -31.322 51.4219 -41.9104 51.4219 -42.0575L51.4219 -72.4781C45.5394 -81.0076 41.4217 -90.8187 39.5729 -101.407L39.5729 -43.1499ZM32.0518 -20.8807C33.7535 -18.0235 36.0015 -15.3344 38.9217 -13.1285C38.9427 -13.1495 38.9637 -13.1495 38.9847 -13.1705C39.0057 -13.1495 39.0267 -13.1495 39.0477 -13.1285C41.9679 -15.3344 44.1949 -18.0235 45.9176 -20.8807C42.4092 -25.5656 39.9931 -31.0909 39.0057 -37.0784C37.9763 -31.0699 35.5603 -25.5656 32.0518 -20.8807ZM31.4636 -21.9311C35.8124 -27.9186 38.3755 -35.2296 38.3755 -43.1499L38.3755 -101.407C36.5267 -90.8397 32.409 -81.0286 26.5265 -72.4781L26.5265 -42.0575C26.5265 -41.9104 26.3165 -31.322 31.4636 -21.9311ZM20.8542 -12.12C24.6568 -14.452 27.9971 -17.4562 30.7283 -20.9647C25.182 -30.7548 25.4131 -41.9314 25.4131 -42.0785L25.4131 -70.9234C22.3458 -66.7217 18.8584 -62.8351 14.9928 -59.3476L14.9928 -42.9608C14.9928 -42.7087 14.6987 -27.7295 20.8542 -12.12ZM-35.155 -39.9776C-33.5373 -21.3429 -17.7178 -6.67878 1.52618 -6.67878C8.20695 -6.67878 14.4886 -8.46452 19.9088 -11.5528C13.5852 -27.4564 13.9003 -42.7297 13.9003 -42.9608L13.9003 -58.3392C0.769835 -46.9735 -16.3942 -40.0406 -35.155 -39.9776Z" fill="#B99051" fill-opacity="0.3"/>
<path d="M113.515 -40.965L113.956 -40.965C113.977 -40.965 113.998 -40.965 113.998 -40.965L114.586 -40.965C154.061 -41.007 186.415 -71.9318 188.159 -110.588L188.159 -111.533L188.768 -111.533L189.377 -111.533L189.377 -110.588C191.121 -71.9318 223.474 -41.007 262.929 -40.965L263.517 -40.965C263.538 -40.965 263.559 -40.965 263.559 -40.965L264 -40.965C263.433 -0.397163 229.924 32.4395 188.789 32.4395C188.768 32.4395 188.747 32.4395 188.726 32.4395C188.705 32.4395 188.684 32.4395 188.663 32.4395C147.591 32.4395 114.082 -0.397176 113.515 -40.965ZM188.159 13.5106C179.377 6.9979 173.747 -1.78374 170.133 -10.4813C164.587 -7.35105 158.2 -5.5443 151.372 -5.5443C134.607 -5.5443 120.343 -16.3848 115.384 -31.364C120.595 3.8676 151.204 31.0529 188.159 31.326L188.159 13.5106ZM188.159 -12.099C185.196 -14.3049 182.906 -17.0151 181.142 -19.8722C178.348 -16.3638 174.965 -13.3595 171.1 -11.0276C174.545 -2.6661 179.881 5.7794 188.159 12.145L188.159 -12.099ZM262.151 -31.343C257.172 -16.3638 242.928 -5.52328 226.163 -5.52329C219.336 -5.52329 212.928 -7.33004 207.403 -10.4603C203.789 -1.78374 198.159 6.99791 189.377 13.5316L189.377 31.347C226.331 31.0739 256.941 3.88862 262.151 -31.343ZM206.436 -11.0276C202.571 -13.3595 199.188 -16.3638 196.394 -19.8722C194.629 -17.0151 192.339 -14.3049 189.377 -12.099L189.377 12.145C197.634 5.7794 202.97 -2.6661 206.436 -11.0276ZM213.789 -42.8558C213.789 -42.6247 214.104 -27.3724 207.802 -11.4898C213.201 -8.40148 219.462 -6.61574 226.142 -6.61574C245.344 -6.61574 261.143 -21.2588 262.761 -39.8515C244.021 -39.9146 226.878 -46.8264 213.789 -58.1921L213.789 -42.8558ZM202.298 -41.9524C202.298 -41.8053 202.529 -30.6497 196.982 -20.8807C199.692 -17.3932 203.033 -14.389 206.835 -12.057C212.991 -27.6455 212.697 -42.6037 212.676 -42.8348L212.676 -59.2006C208.81 -62.688 205.323 -66.5536 202.276 -70.7554L202.276 -41.9524L202.298 -41.9524ZM189.377 -43.0239C189.377 -35.1246 191.94 -27.8135 196.268 -21.8471C201.394 -31.2169 201.205 -41.7843 201.184 -41.9314L201.184 -72.31C195.323 -80.8395 191.205 -90.6296 189.356 -101.176L189.356 -43.0239L189.377 -43.0239ZM181.856 -20.7966C183.558 -17.9394 185.785 -15.2503 188.705 -13.0654C188.726 -13.0864 188.747 -13.0864 188.768 -13.1074C188.789 -13.0864 188.81 -13.0864 188.831 -13.0654C191.751 -15.2713 193.978 -17.9604 195.68 -20.7966C192.192 -25.4816 189.776 -30.9859 188.789 -36.9733C187.78 -30.9859 185.364 -25.4816 181.856 -20.7966ZM181.268 -21.8471C185.596 -27.8135 188.159 -35.1246 188.159 -43.0239L188.159 -101.176C186.31 -90.6296 182.192 -80.8185 176.331 -72.31L176.331 -41.9314C176.331 -41.7843 176.121 -31.217 181.268 -21.8471ZM170.679 -12.057C174.482 -14.389 177.822 -17.3932 180.533 -20.8807C174.986 -30.6497 175.217 -41.8053 175.217 -41.9524L175.217 -70.7554C172.171 -66.5536 168.684 -62.667 164.818 -59.2006L164.818 -42.8348C164.818 -42.6037 164.524 -27.6455 170.679 -12.057ZM114.754 -39.8726C116.372 -21.2798 132.17 -6.63676 151.372 -6.63676C158.053 -6.63675 164.314 -8.42249 169.713 -11.5108C163.41 -27.3934 163.705 -42.6457 163.726 -42.8768L163.726 -58.2342C150.637 -46.8474 133.494 -39.9356 114.754 -39.8726Z" fill="#B99051" fill-opacity="0.3"/>
<path d="M38.6987 32.1327L39.14 32.1327C39.161 32.1327 39.182 32.1327 39.182 32.1327L39.7702 32.1327C79.2246 32.0906 111.599 1.16581 113.322 -37.4902L113.322 -38.4356L113.931 -38.4356L114.54 -38.4356L114.54 -37.4902C116.284 1.16581 148.637 32.0906 188.092 32.1327L188.68 32.1327C188.701 32.1327 188.722 32.1327 188.722 32.1327L189.163 32.1327C188.596 72.7005 155.087 105.537 113.952 105.537C113.931 105.537 113.91 105.537 113.889 105.537C113.868 105.537 113.847 105.537 113.826 105.537C72.7749 105.537 39.266 72.7005 38.6987 32.1327ZM113.343 86.6293C104.561 80.1166 98.9307 71.3349 95.3172 62.6373C89.7709 65.7676 83.3843 67.5744 76.5565 67.5744C59.7915 67.5744 45.5266 56.7339 40.5685 41.7546C45.7787 76.9863 76.3884 104.172 113.343 104.445L113.343 86.6293ZM113.343 61.0196C110.38 58.8137 108.091 56.1036 106.326 53.2464C103.532 56.7549 100.149 59.7591 96.2836 62.0911C99.7291 70.4526 105.065 78.8981 113.343 85.2637L113.343 61.0196ZM187.335 41.7547C182.356 56.7339 168.112 67.5744 151.348 67.5744C144.52 67.5744 138.112 65.7676 132.587 62.6373C128.973 71.3139 123.343 80.0956 114.561 86.6293L114.561 104.445C151.516 104.172 182.125 77.0073 187.335 41.7547ZM131.62 62.0911C127.755 59.7591 124.372 56.7549 121.578 53.2464C119.813 56.1036 117.523 58.8137 114.561 61.0196L114.561 85.2637C122.839 78.8771 128.175 70.4526 131.62 62.0911ZM138.994 30.2629C138.994 30.494 139.31 45.7463 133.007 61.6289C138.406 64.7172 144.667 66.5029 151.348 66.5029C170.549 66.5029 186.348 51.8599 187.966 33.2671C169.226 33.2041 152.083 26.2922 138.994 14.9265L138.994 30.2629ZM127.482 31.1663C127.482 31.3133 127.713 42.469 122.166 52.238C124.877 55.7255 128.217 58.7297 132.019 61.0617C138.175 45.4732 137.881 30.515 137.86 30.2839L137.86 13.9181C133.994 10.4307 130.507 6.56506 127.461 2.36331L127.461 31.1663L127.482 31.1663ZM114.561 30.0738C114.561 37.9731 117.124 45.2841 121.452 51.2506C126.578 41.8807 126.389 31.3133 126.368 31.1663L126.368 0.78766C120.507 -7.74188 116.389 -17.5319 114.54 -28.0783L114.54 30.0738L114.561 30.0738ZM107.061 52.322C108.763 55.1792 110.99 57.8683 113.91 60.0532C113.931 60.0322 113.952 60.0322 113.973 60.0112C113.994 60.0322 114.015 60.0322 114.036 60.0532C116.956 57.8473 119.183 55.1582 120.885 52.322C117.397 47.6371 114.981 42.1328 113.994 36.1453C112.965 42.1328 110.549 47.6371 107.061 52.322ZM106.452 51.2716C110.78 45.3051 113.343 37.9941 113.343 30.0948L113.343 -28.0573C111.494 -17.5109 107.376 -7.69986 101.515 0.808671L101.515 31.1873C101.515 31.3133 101.326 41.9017 106.452 51.2716ZM95.8635 61.0617C99.6661 58.7297 103.006 55.7254 105.717 52.238C100.17 42.4689 100.401 31.3133 100.401 31.1663L100.401 2.36331C97.3551 6.56505 93.8677 10.4517 90.0021 13.9181L90.002 30.2839C90.0231 30.515 89.729 45.4732 95.8635 61.0617ZM39.9383 33.2461C41.556 51.8388 57.3545 66.4819 76.5565 66.4819C83.2373 66.4819 89.4978 64.6962 94.897 61.6079C88.5944 45.7253 88.8886 30.473 88.9096 30.2419L88.9096 14.8845C75.8212 26.2712 58.6781 33.1831 39.9383 33.2461Z" fill="#B99051" fill-opacity="0.3"/>
<path d="M-110.98 32.1327L-110.539 32.1327C-110.518 32.1327 -110.497 32.1327 -110.497 32.1327L-109.909 32.1327C-70.4542 32.0906 -38.0798 1.16581 -36.357 -37.4902L-36.357 -38.4356L-35.7478 -38.4356L-35.1385 -38.4356L-35.1385 -37.4902C-33.3948 1.16581 -1.0414 32.0907 38.413 32.1327L39.0012 32.1327C39.0222 32.1327 39.0433 32.1327 39.0433 32.1327L39.4844 32.1327C38.9172 72.7005 5.40832 105.537 -35.7267 105.537C-35.7478 105.537 -35.7688 105.537 -35.7898 105.537C-35.8108 105.537 -35.8318 105.537 -35.8529 105.537C-76.8829 105.537 -110.392 72.7005 -110.98 32.1327ZM-36.315 86.6083C-45.0966 80.0956 -50.727 71.3139 -54.3405 62.6163C-59.8868 65.7466 -66.2734 67.5534 -73.1013 67.5534C-89.8662 67.5533 -104.131 56.7129 -109.089 41.7336C-103.879 76.9653 -73.2693 104.151 -36.315 104.424L-36.315 86.6083ZM-36.315 60.9986C-39.2772 58.7927 -41.5672 56.0826 -43.332 53.2254C-46.1261 56.7339 -49.5085 59.7381 -53.3741 62.0701C-49.9287 70.4315 -44.5924 78.8771 -36.315 85.2427L-36.315 60.9986ZM37.6567 41.7547C32.6776 56.7339 18.4337 67.5744 1.66875 67.5744C-5.15909 67.5744 -11.5667 65.7676 -17.092 62.6373C-20.7055 71.3139 -26.3359 80.0956 -35.1175 86.6293L-35.1175 104.424C1.83679 104.172 32.4465 76.9863 37.6567 41.7547ZM-18.0585 62.0701C-21.9241 59.7381 -25.3065 56.7339 -28.1006 53.2254C-29.8654 56.0826 -32.1553 58.7927 -35.1175 60.9986L-35.1175 85.2427C-26.8401 78.8771 -21.5039 70.4315 -18.0585 62.0701ZM-10.6844 30.2419C-10.6844 30.473 -10.3693 45.7253 -16.6719 61.6079C-11.2726 64.6962 -5.01203 66.4819 1.66875 66.4819C20.8707 66.4819 36.6693 51.8388 38.2869 33.2461C19.5472 33.1831 2.40404 26.2712 -10.6844 14.9055L-10.6844 30.2419ZM-22.1972 31.1453C-22.1972 31.2923 -21.9661 42.4479 -27.5124 52.217C-24.8023 55.7044 -21.4619 58.7087 -17.6593 61.0407C-11.5037 45.4522 -11.7979 30.494 -11.8189 30.2629L-11.8189 13.8971C-15.6845 10.4097 -19.1719 6.54405 -22.2181 2.34231L-22.2182 31.1453L-22.1972 31.1453ZM-35.1175 30.0738C-35.1175 37.9731 -32.5545 45.2841 -28.2267 51.2506C-23.1006 41.8807 -23.2896 31.3133 -23.3106 31.1663L-23.3106 0.787652C-29.1721 -7.74189 -33.2897 -17.5319 -35.1385 -28.0783L-35.1385 30.0738L-35.1175 30.0738ZM-42.6176 52.301C-40.9159 55.1582 -38.689 57.8473 -35.7688 60.0322C-35.7478 60.0112 -35.7268 60.0112 -35.7058 59.9902C-35.6848 60.0112 -35.6638 60.0112 -35.6428 60.0322C-32.7225 57.8263 -30.4956 55.1372 -28.7939 52.301C-32.2813 47.6161 -34.6973 42.1118 -35.6847 36.1243C-36.7142 42.1118 -39.1302 47.6161 -42.6176 52.301ZM-43.2269 51.2506C-38.8991 45.2841 -36.336 37.9731 -36.336 30.0738L-36.336 -28.0783C-38.1848 -17.5319 -42.3025 -7.72088 -48.1639 0.787649L-48.1639 31.1663C-48.1429 31.3133 -48.353 41.8807 -43.2269 51.2506ZM-53.7943 61.0407C-49.9917 58.7087 -46.6513 55.7044 -43.9412 52.217C-49.4875 42.4479 -49.2564 31.2923 -49.2564 31.1453L-49.2564 2.34231C-52.3026 6.54405 -55.7901 10.4307 -59.6557 13.8971L-59.6557 30.2629C-59.6557 30.494 -59.9498 45.4522 -53.7943 61.0407ZM-109.719 33.2251C-108.102 51.8178 -92.3032 66.4609 -73.1013 66.4609C-66.4205 66.4609 -60.1599 64.6752 -54.7607 61.5869C-61.0633 45.7043 -60.7691 30.452 -60.7481 30.2209L-60.7481 14.8635C-73.8576 26.2502 -91.0007 33.1621 -109.719 33.2251Z" fill="#B99051" fill-opacity="0.3"/>
<path d="M-36.1377 103.491L-35.6965 103.491C-35.6755 103.491 -35.6545 103.491 -35.6545 103.491L-35.0662 103.491C4.38815 103.449 36.7626 72.5242 38.4853 33.8682L38.4853 32.9228L39.0945 32.9228L39.7038 32.9228L39.7038 33.8682C41.4475 72.5242 73.801 103.449 113.255 103.491L113.844 103.491C113.865 103.491 113.886 103.491 113.886 103.491L114.327 103.491C113.76 144.059 80.2506 176.896 39.1155 176.896C39.0945 176.896 39.0735 176.896 39.0525 176.896C39.0315 176.896 39.0105 176.896 38.9895 176.896C-2.04053 176.896 -35.5494 144.059 -36.1377 103.491ZM38.5273 157.967C29.7457 151.454 24.1154 142.672 20.5019 133.975C14.9556 137.105 8.56885 138.912 1.74102 138.912C-15.0239 138.912 -29.2888 128.071 -34.2469 113.092C-29.0367 148.324 1.57297 175.509 38.5273 175.782L38.5273 157.967ZM38.5273 132.357C35.5651 130.151 33.2751 127.441 31.5104 124.584C28.7162 128.092 25.3338 131.097 21.4682 133.428C24.9137 141.79 30.2499 150.235 38.5273 156.601L38.5273 132.357ZM112.499 113.113C107.52 128.092 93.2761 138.933 76.5111 138.933C69.6833 138.933 63.2756 137.126 57.7503 133.996C54.1368 142.672 48.5065 151.454 39.7248 157.988L39.7248 175.782C76.6791 175.53 107.289 148.345 112.499 113.113ZM56.7839 133.428C52.9183 131.097 49.5359 128.092 46.7417 124.584C44.977 127.441 42.687 130.151 39.7248 132.357L39.7248 156.601C48.0022 150.235 53.3385 141.79 56.7839 133.428ZM64.158 101.6C64.158 101.831 64.4731 117.084 58.1705 132.966C63.5697 136.055 69.8303 137.84 76.5111 137.84C95.7131 137.84 111.512 123.197 113.129 104.605C94.3895 104.542 77.2464 97.6296 64.158 86.2639L64.158 101.6ZM52.6662 102.504C52.6662 102.651 52.8973 113.806 47.351 123.575C50.0611 127.063 53.4015 130.067 57.2041 132.399C63.3596 116.811 63.0655 101.852 63.0445 101.621L63.0445 85.2555C59.1789 81.7681 55.6914 77.9025 52.6452 73.7007L52.6452 102.504L52.6662 102.504ZM39.7248 101.432C39.7248 109.331 42.2879 116.643 46.6157 122.609C51.7418 113.239 51.5527 102.672 51.5317 102.525L51.5317 72.1461C45.6703 63.6165 41.5526 53.8265 39.7038 43.2801L39.7038 101.432L39.7248 101.432ZM32.2247 123.659C33.9264 126.517 36.1533 129.206 39.0735 131.391C39.0946 131.37 39.1156 131.37 39.1366 131.349C39.1576 131.37 39.1786 131.37 39.1996 131.391C42.1198 129.185 44.3468 126.496 46.0485 123.659C42.561 118.974 40.145 113.47 39.1576 107.483C38.1492 113.47 35.7121 118.974 32.2247 123.659ZM31.6154 122.609C35.9432 116.643 38.5063 109.331 38.5063 101.432L38.5063 43.2801C36.6575 53.8265 32.5399 63.6375 26.6784 72.146L26.6784 102.525C26.6994 102.672 26.4893 113.239 31.6154 122.609ZM21.048 132.399C24.8506 130.067 28.191 127.063 30.9011 123.575C25.3548 113.806 25.5859 102.651 25.5859 102.504L25.5859 73.7007C22.5397 77.9024 19.0523 81.7891 15.1867 85.2555L15.1867 101.621C15.1867 101.852 14.8925 116.811 21.048 132.399ZM-34.8772 104.584C-33.2595 123.176 -17.4609 137.819 1.74102 137.819C8.42179 137.819 14.6824 136.034 20.0817 132.945C13.779 117.063 14.0731 101.81 14.0942 101.579L14.0942 86.2219C0.98472 97.6086 -16.1374 104.52 -34.8772 104.584Z" fill="#B99051" fill-opacity="0.3"/>
</g>
<mask id="mask2_855_15" style="mask-type:alpha" maskUnits="userSpaceOnUse" x="86" y="297" width="307" height="150">
<rect x="86" y="297" width="306.383" height="150" fill="#D9D9D9"/>
</mask>
<g mask="url(#mask2_855_15)">
<path d="M261.199 409.57H260.856C260.84 409.57 260.823 409.57 260.823 409.57H260.366C229.685 409.603 204.51 433.651 203.171 463.71V464.446H202.697H202.223V463.71C200.867 433.651 175.709 409.603 145.028 409.57H144.571C144.554 409.57 144.538 409.57 144.538 409.57H144.195C144.636 378.024 170.693 352.489 202.681 352.489C202.697 352.489 202.713 352.489 202.73 352.489C202.746 352.489 202.762 352.489 202.779 352.489C234.701 352.489 260.758 378.024 261.199 409.57ZM203.154 367.192C209.983 372.257 214.361 379.086 217.171 385.849C221.484 383.415 226.451 382.01 231.76 382.01C244.797 382.01 255.89 390.44 259.745 402.088C255.694 374.691 231.891 353.551 203.154 353.339V367.192ZM203.154 387.107C205.458 388.822 207.239 390.93 208.611 393.152C210.784 390.423 213.414 388.087 216.42 386.274C213.741 379.772 209.591 373.204 203.154 368.254V387.107ZM145.616 402.088C149.488 390.44 160.564 382.01 173.601 382.01C178.911 382.01 183.893 383.415 188.19 385.849C191 379.102 195.378 372.273 202.207 367.192V353.339C173.47 353.551 149.668 374.675 145.616 402.088ZM188.941 386.274C191.947 388.087 194.578 390.423 196.75 393.152C198.123 390.93 199.903 388.822 202.207 387.107V368.254C195.77 373.221 191.621 379.772 188.941 386.274ZM183.207 411.024C183.207 410.844 182.962 398.984 187.863 386.633C183.665 384.232 178.796 382.843 173.601 382.843C158.669 382.843 146.384 394.23 145.126 408.688C159.698 408.737 173.029 414.112 183.207 422.95V411.024ZM192.16 410.322C192.16 410.207 191.98 401.532 196.293 393.936C194.186 391.224 191.588 388.888 188.631 387.074C183.844 399.196 184.073 410.828 184.089 411.008V423.734C187.095 426.446 189.807 429.452 192.176 432.719V410.322H192.16ZM202.207 411.171C202.207 405.029 200.214 399.343 196.848 394.704C192.862 401.99 193.009 410.207 193.026 410.322V433.945C197.584 440.577 200.786 448.19 202.223 456.392V411.171H202.207ZM208.039 393.87C206.716 391.649 204.984 389.558 202.713 387.859C202.697 387.875 202.681 387.875 202.664 387.891C202.648 387.875 202.632 387.875 202.615 387.859C200.344 389.574 198.613 391.665 197.289 393.87C200.001 397.514 201.88 401.794 202.648 406.45C203.448 401.794 205.327 397.514 208.039 393.87ZM208.513 394.687C205.148 399.327 203.154 405.012 203.154 411.155V456.375C204.592 448.174 207.794 440.545 212.352 433.928V410.305C212.352 410.207 212.499 401.974 208.513 394.687ZM216.747 387.074C213.79 388.888 211.192 391.224 209.085 393.936C213.398 401.532 213.218 410.207 213.218 410.322V432.719C215.587 429.452 218.299 426.43 221.305 423.734V411.008C221.288 410.828 221.517 399.196 216.747 387.074ZM260.235 408.704C258.977 394.246 246.692 382.859 231.76 382.859C226.565 382.859 221.697 384.248 217.498 386.65C222.399 399 222.17 410.861 222.154 411.04V422.983C232.332 414.128 245.663 408.753 260.235 408.704Z" fill="#B99051" fill-opacity="0.3"/>
<path d="M377.592 409.57H377.249C377.233 409.57 377.217 409.57 377.217 409.57H376.759C346.079 409.603 320.903 433.651 319.564 463.71V464.446H319.09H318.616V463.71C317.26 433.651 292.102 409.603 261.421 409.57H260.964C260.947 409.57 260.931 409.57 260.931 409.57H260.588C261.029 378.024 287.086 352.489 319.074 352.489C319.09 352.489 319.106 352.489 319.123 352.489C319.139 352.489 319.155 352.489 319.172 352.489C351.078 352.489 377.135 378.024 377.592 409.57ZM319.531 367.209C326.36 372.273 330.738 379.102 333.548 385.865C337.861 383.431 342.828 382.026 348.137 382.026C361.174 382.026 372.266 390.456 376.122 402.104C372.07 374.707 348.268 353.567 319.531 353.355V367.209ZM319.531 387.123C321.835 388.839 323.615 390.946 324.988 393.168C327.161 390.44 329.791 388.104 332.797 386.29C330.117 379.788 325.968 373.221 319.531 368.271V387.123ZM262.009 402.088C265.881 390.44 276.957 382.01 289.994 382.01C295.304 382.01 300.286 383.415 304.583 385.849C307.393 379.102 311.771 372.273 318.6 367.192V353.355C289.864 353.551 266.061 374.691 262.009 402.088ZM305.334 386.29C308.34 388.104 310.971 390.44 313.143 393.168C314.516 390.946 316.297 388.839 318.6 387.123V368.271C312.163 373.221 308.014 379.788 305.334 386.29ZM299.6 411.04C299.6 410.861 299.355 399 304.256 386.65C300.058 384.248 295.189 382.859 289.994 382.859C275.062 382.859 262.777 394.246 261.519 408.704C276.092 408.753 289.422 414.128 299.6 422.966V411.04ZM308.553 410.338C308.553 410.224 308.373 401.549 312.686 393.952C310.579 391.24 307.981 388.904 305.024 387.091C300.237 399.213 300.466 410.844 300.482 411.024V423.751C303.488 426.462 306.2 429.468 308.569 432.736V410.338H308.553ZM318.6 411.171C318.6 405.029 316.607 399.343 313.242 394.704C309.255 401.99 309.402 410.207 309.419 410.322V433.945C313.977 440.577 317.179 448.19 318.616 456.392V411.171H318.6ZM324.432 393.887C323.109 391.665 321.377 389.574 319.106 387.875C319.09 387.891 319.074 387.891 319.057 387.908C319.041 387.891 319.025 387.891 319.008 387.875C316.738 389.59 315.006 391.681 313.683 393.887C316.395 397.53 318.273 401.81 319.041 406.466C319.842 401.81 321.72 397.53 324.432 393.887ZM324.906 394.704C321.541 399.343 319.548 405.029 319.548 411.171V456.392C320.985 448.19 324.187 440.561 328.745 433.945V410.322C328.729 410.207 328.892 401.99 324.906 394.704ZM333.123 387.091C330.166 388.904 327.569 391.24 325.461 393.952C329.774 401.549 329.595 410.224 329.595 410.338V432.736C331.963 429.468 334.675 426.446 337.681 423.751V411.024C337.681 410.844 337.91 399.213 333.123 387.091ZM376.612 408.721C375.354 394.263 363.069 382.876 348.137 382.876C342.942 382.876 338.074 384.264 333.875 386.666C338.776 399.017 338.547 410.877 338.531 411.057V422.999C348.725 414.144 362.056 408.77 376.612 408.721Z" fill="#B99051" fill-opacity="0.3"/>
<path d="M319.394 354.081H319.051C319.035 354.081 319.018 354.081 319.018 354.081H318.561C287.88 354.114 262.705 378.161 261.366 408.221V408.956H260.892H260.418V408.221C259.062 378.161 233.903 354.114 203.223 354.081H202.765C202.749 354.081 202.733 354.081 202.733 354.081H202.39C202.831 322.534 228.888 297 260.875 297C260.892 297 260.908 297 260.924 297C260.941 297 260.957 297 260.974 297C292.879 297 318.937 322.534 319.394 354.081ZM261.333 311.719C268.162 316.784 272.54 323.613 275.35 330.376C279.663 327.942 284.629 326.537 289.939 326.537C302.976 326.537 314.068 334.967 317.924 346.615C313.872 319.218 290.069 298.078 261.333 297.866V311.719ZM261.333 331.634C263.636 333.349 265.417 335.457 266.789 337.679C268.962 334.95 271.592 332.614 274.598 330.801C271.919 324.299 267.77 317.731 261.333 312.781V331.634ZM203.811 346.599C207.683 334.95 218.759 326.521 231.796 326.521C237.105 326.521 242.088 327.926 246.385 330.36C249.195 323.613 253.573 316.784 260.402 311.703V297.866C231.665 298.062 207.862 319.202 203.811 346.599ZM247.136 330.801C250.142 332.614 252.772 334.95 254.945 337.679C256.318 335.457 258.098 333.349 260.402 331.634V312.781C253.965 317.731 249.815 324.299 247.136 330.801ZM241.402 355.551C241.402 355.372 241.157 343.511 246.058 331.16C241.859 328.759 236.991 327.37 231.796 327.37C216.864 327.37 204.579 338.757 203.321 353.215C217.893 353.264 231.224 358.639 241.402 367.477V355.551ZM250.338 354.849C250.338 354.734 250.158 346.06 254.471 338.463C252.364 335.751 249.766 333.415 246.809 331.601C242.023 343.723 242.251 355.355 242.268 355.535V368.261C245.274 370.973 247.986 373.979 250.355 377.247V354.849H250.338ZM260.402 355.682C260.402 349.539 258.409 343.854 255.043 339.214C251.057 346.501 251.204 354.718 251.22 354.832V378.455C255.778 385.088 258.98 392.701 260.418 400.902V355.682H260.402ZM266.234 338.398C264.911 336.176 263.179 334.085 260.908 332.386C260.892 332.402 260.875 332.402 260.859 332.418C260.843 332.402 260.826 332.402 260.81 332.386C258.539 334.101 256.808 336.192 255.484 338.398C258.196 342.041 260.075 346.321 260.843 350.977C261.627 346.321 263.522 342.041 266.234 338.398ZM266.708 339.214C263.342 343.854 261.349 349.539 261.349 355.682V400.902C262.787 392.701 265.989 385.072 270.547 378.455V354.832C270.531 354.718 270.694 346.501 266.708 339.214ZM274.925 331.601C271.968 333.415 269.371 335.751 267.263 338.463C271.576 346.06 271.396 354.734 271.396 354.849V377.247C273.765 373.979 276.477 370.957 279.483 368.261V355.535C279.483 355.355 279.712 343.723 274.925 331.601ZM318.414 353.231C317.156 338.773 304.871 327.387 289.939 327.387C284.744 327.387 279.875 328.775 275.677 331.177C280.578 343.527 280.349 355.388 280.333 355.568V367.51C290.527 358.655 303.841 353.28 318.414 353.231Z" fill="#B99051" fill-opacity="0.3"/>
</g>
</g>
</svg>
