<svg xmlns="http://www.w3.org/2000/svg" width="22" height="15" viewBox="0 0 22 15" fill="none">
  <path d="M8.55604 0.229858C9.86604 0.309858 11.176 0.319859 12.486 0.409859C14.216 0.529859 15.896 0.859857 17.546 1.39986C18.656 1.75986 19.666 2.29985 20.546 3.06985C21.236 3.66985 21.636 4.44986 21.766 5.35986C21.776 5.42986 21.776 5.49985 21.776 5.56985C21.776 6.93985 21.776 8.31986 21.776 9.68986C21.786 11.9899 20.356 13.5299 18.626 14.1399C17.066 14.6899 15.456 14.8799 13.806 14.7099C11.556 14.4799 9.49604 13.7499 7.68604 12.3799C7.24604 12.0499 6.83604 11.6799 6.43604 11.3099C5.55604 10.4799 4.54604 9.86985 3.37604 9.52985C2.50604 9.26985 1.70601 8.90985 1.02601 8.27985C0.566008 7.84985 0.336016 7.34985 0.346016 6.70985C0.376016 5.49985 0.356025 4.28986 0.356025 3.08986C0.356025 2.18986 0.746047 1.61986 1.56605 1.25986C2.55605 0.819857 3.59601 0.60986 4.65601 0.44986C5.96601 0.24986 7.25604 0.229858 8.55604 0.229858ZM14.906 10.1799C16.046 10.1899 17.146 10.0099 18.226 9.65986C19.666 9.18986 20.646 8.24986 21.126 6.80986C21.576 5.42986 21.256 4.23985 20.196 3.24986C19.976 3.03986 19.736 2.84986 19.496 2.67986C18.656 2.07986 17.686 1.73986 16.716 1.42986C15.636 1.07986 14.526 0.869857 13.396 0.759857C12.206 0.649857 11.026 0.559856 9.83601 0.469856C8.90601 0.399856 7.96602 0.459857 7.03602 0.509857C6.30602 0.549857 5.58604 0.599859 4.86604 0.659859C4.08604 0.729859 3.31605 0.909854 2.56605 1.13985C2.11605 1.26985 1.70602 1.47986 1.34602 1.76986C0.786016 2.20986 0.676006 2.80985 1.08601 3.38985C1.22601 3.59985 1.40603 3.79985 1.60603 3.95985C2.19603 4.44985 2.86602 4.77986 3.59602 4.97986C4.84602 5.31986 5.91603 5.95986 6.85603 6.85986C9.09603 9.01986 11.776 10.1499 14.906 10.1799Z" fill="#941A1D"/>
  <path d="M14.3264 9.67994C13.2364 9.61994 12.1864 9.37994 11.1664 9.00994C10.2964 8.68994 9.44642 8.30994 8.73642 7.68994C8.53642 7.50994 8.35641 7.28995 8.22641 7.05995C8.00641 6.65995 8.09641 6.30995 8.41641 5.98995C8.86641 5.53995 9.42641 5.41994 10.0364 5.43994C10.6664 5.45994 11.2264 5.70994 11.8164 5.89994C12.2464 6.03994 12.6864 6.17995 13.1264 6.26995C13.7364 6.39995 14.3264 6.24994 14.8864 5.99994C15.0864 5.90994 15.2864 5.81995 15.4864 5.72995C15.7464 5.61995 16.0164 5.56994 16.3064 5.60994C16.4764 5.62994 16.4964 5.64994 16.4164 5.79994C16.1664 6.28995 15.9164 6.77994 15.6464 7.24994C15.3764 7.73994 15.2864 8.22994 15.5264 8.75994C15.5464 8.80994 15.5564 8.85995 15.5664 8.91995C15.6464 9.28995 15.5064 9.51994 15.1364 9.59994C15.0664 9.61994 14.9964 9.62994 14.9264 9.63994C14.7364 9.64994 14.5364 9.66994 14.3264 9.67994Z" fill="#941A1D"/>
  <path d="M12.4862 2.46985C13.1062 2.48985 13.5361 2.58985 13.9461 2.75985C14.7361 3.07985 15.5561 3.09985 16.3961 2.98985C17.0161 2.90985 17.6262 2.82985 18.2362 3.00985C18.7562 3.15985 19.1662 3.43985 19.4162 3.93985C19.5662 4.24985 19.7162 4.55985 19.8762 4.86985C20.0062 5.13985 19.9461 5.37985 19.7661 5.59985C19.4061 6.02985 18.8961 6.11985 18.4061 5.82985C18.0061 5.58985 17.5961 5.39985 17.1461 5.26985C16.4661 5.07985 15.7761 5.07985 15.0761 5.11985C14.1461 5.17985 13.2262 5.23985 12.2962 5.25985C11.7262 5.27985 11.1761 5.13985 10.6961 4.82985C10.4961 4.69985 10.3061 4.51985 10.1561 4.32985C9.87615 3.95985 9.91618 3.51985 10.2562 3.19985C10.4262 3.03985 10.6362 2.89985 10.8462 2.78985C11.4262 2.53985 12.0362 2.47985 12.4862 2.46985Z" fill="#941A1D"/>
  <path d="M7.43682 5.51976C6.88682 5.53976 6.3568 5.35976 5.8568 5.09976C5.1168 4.70976 4.38678 4.29976 3.64678 3.89976C3.60678 3.87976 3.5768 3.84976 3.5368 3.82976C3.2768 3.63976 3.2768 3.44976 3.5368 3.24976C3.5668 3.22976 3.59677 3.19976 3.63677 3.18976C4.60677 2.81976 5.5568 2.42976 6.5368 2.07976C6.9568 1.92976 7.41681 1.89976 7.86681 2.02976C8.07681 2.08976 8.27679 2.18976 8.46679 2.28976C8.76679 2.44976 8.88679 2.71976 8.84679 3.04976C8.80679 3.42976 8.88682 3.78976 8.99682 4.14976C9.02682 4.26976 9.05683 4.38976 9.06683 4.51976C9.09683 4.86976 8.92681 5.11976 8.61681 5.27976C8.25681 5.45976 7.86682 5.52976 7.43682 5.51976Z" fill="#941A1D"/>
  <path d="M17.7454 2.38989C17.5254 2.44989 17.3053 2.5199 17.0853 2.5499C16.6953 2.6099 16.2953 2.6699 15.8953 2.6999C15.3153 2.7499 14.7553 2.62989 14.2053 2.42989C13.5453 2.17989 12.8653 2.1399 12.1653 2.2299C11.9053 2.2699 11.6453 2.27989 11.4453 2.02989C11.5153 1.96989 11.5853 1.90989 11.6553 1.84989C11.8053 1.71989 11.8154 1.6399 11.6854 1.4899C11.6354 1.4299 11.5753 1.37989 11.5353 1.31989C11.3753 1.10989 11.4453 0.929897 11.7153 0.909897C11.9453 0.889897 12.1854 0.889897 12.4254 0.909897C13.4254 1.0199 14.4353 1.1299 15.3953 1.4399C16.1253 1.6699 16.8354 1.9399 17.5554 2.1899C17.6354 2.2199 17.6953 2.27989 17.7653 2.31989C17.7453 2.34989 17.7454 2.36989 17.7454 2.38989Z" fill="#941A1D"/>
  <path d="M7.1968 1.24022C7.1168 1.41022 7.00686 1.52022 6.81686 1.58022C5.87686 1.86022 4.93685 2.14022 3.99685 2.42022C3.54685 2.55022 3.13685 2.76021 2.74685 3.03021C2.50685 3.20021 2.36681 3.41021 2.33681 3.71021C2.31681 3.89021 2.25681 3.92022 2.08681 3.87022C1.34681 3.66022 1.1168 2.82021 1.6368 2.25021C2.0568 1.80021 2.59682 1.58022 3.15682 1.40022C4.05682 1.12022 4.97683 0.990218 5.91683 1.02022C6.14683 1.03022 6.36682 1.04022 6.59682 1.02022C6.82682 1.00022 7.0268 1.07022 7.1968 1.24022Z" fill="#941A1D"/>
  <path d="M18.3466 6.46033C18.4766 6.47033 18.5966 6.48033 18.7266 6.50033C19.1966 6.58033 19.3966 6.98033 19.1766 7.41033C18.9666 7.81033 18.6666 8.14033 18.2866 8.38033C18.0666 8.52033 17.8066 8.63033 17.5566 8.72033C17.3566 8.79033 17.1866 8.74033 17.1066 8.58033C16.9366 8.22033 16.7866 7.85033 16.9066 7.43033C17.0766 6.84033 17.5365 6.49033 18.1965 6.47033C18.2465 6.47033 18.2966 6.47033 18.3466 6.47033C18.3466 6.47033 18.3466 6.47033 18.3466 6.46033Z" fill="#941A1D"/>
  <path d="M9.97535 1.99004C9.70535 1.99004 9.46533 1.93004 9.26533 1.74004C9.04533 1.53004 9.04534 1.29004 9.27534 1.08004C9.65534 0.730038 10.4953 0.710035 10.8953 1.03003C11.1153 1.21003 11.1254 1.42004 10.9254 1.62004C10.6654 1.89004 10.3354 1.99004 9.97535 1.99004Z" fill="#941A1D"/>
</svg>