<svg xmlns="http://www.w3.org/2000/svg" width="18" height="21" viewBox="0 0 18 21" fill="none">
  <path d="M13.5757 19.6648C14.0857 19.7948 14.6357 19.5548 15.1357 19.9148C14.3657 20.0748 13.5757 19.9948 12.8457 20.2648C12.9257 20.5248 13.3357 20.4748 13.2857 20.8448C12.9857 20.8248 12.6857 20.8048 12.3857 20.7748C12.0557 20.7448 11.7857 20.5948 11.5757 20.3448C11.4757 20.2148 11.3957 20.2448 11.3057 20.3548C11.2357 20.4348 11.1557 20.5148 11.0857 20.5848C11.0657 20.5748 11.0457 20.5548 11.0257 20.5448C11.0857 20.3848 11.1457 20.2348 11.2057 20.0848C11.5357 19.3048 11.4257 18.5748 10.9657 17.8948C10.7257 17.5348 10.4757 17.1948 10.2357 16.8348C10.1457 16.6948 10.0357 16.6348 9.86571 16.6348C9.56571 16.6448 9.26569 16.6448 8.96569 16.6348C8.80569 16.6348 8.71572 16.6848 8.68572 16.8548C8.52572 17.5548 8.35567 18.2548 8.19567 18.9548C8.16567 19.0948 8.1957 19.1748 8.3557 19.1648C8.6657 19.1548 8.98571 19.1448 9.29571 19.1648C9.51571 19.1848 9.74569 19.2448 9.96569 19.2948C10.0257 19.3048 10.0657 19.3748 10.1057 19.4648C9.6957 19.4648 9.28572 19.4648 8.87572 19.4648C8.87572 19.4948 8.86571 19.5148 8.86571 19.5448C9.03571 19.5748 9.20571 19.6048 9.36571 19.6348C9.63571 19.6848 9.8957 19.7248 10.1657 19.7648C10.2257 19.7748 10.3057 19.7848 10.3457 19.8248C10.4157 19.9048 10.4657 20.0048 10.5257 20.0848C10.4357 20.0948 10.3457 20.1348 10.2557 20.1148C9.70573 20.0448 9.1557 19.9648 8.6057 19.8848C8.5457 19.8748 8.4757 19.8848 8.4157 19.8948C8.3957 19.9148 8.38571 19.9348 8.36571 19.9548C8.47571 20.0748 8.57567 20.1948 8.69567 20.3048C8.79567 20.3948 8.90573 20.4748 8.81573 20.6648C8.32573 20.3748 7.78569 20.1948 7.40569 19.7748C7.25569 19.6148 7.13568 19.5748 6.95568 19.6948C6.91568 19.7248 6.85568 19.7348 6.76568 19.7148C6.86568 19.6048 6.95573 19.4748 7.06573 19.3748C7.42573 19.0348 7.65572 18.6348 7.74572 18.1448C7.82572 17.7348 7.94572 17.3248 8.05572 16.9248C8.09572 16.7648 8.05569 16.6648 7.90569 16.6048C7.41569 16.3948 6.92572 16.1648 6.43572 15.9648C4.95572 15.3448 4.08569 14.2448 3.83569 12.6648C3.78569 12.3748 3.62572 12.1848 3.37572 12.0748C2.95572 11.8848 2.61571 11.5948 2.36571 11.2048C2.11571 10.8248 2.13572 10.6048 2.43572 10.2848C2.45572 10.2648 2.46571 10.2348 2.48571 10.2048C2.26571 10.0448 2.04569 9.91478 1.84569 9.73478C1.22569 9.18478 0.755717 8.57478 0.805717 7.67478C0.825717 7.37478 0.705673 7.07478 0.635673 6.77478C0.545673 6.36478 0.5757 6.29478 0.9757 6.15478C1.0357 6.13478 1.1057 6.09478 1.1057 6.09478C1.0757 5.81478 1.0257 5.57478 1.0357 5.33478C1.0457 5.09478 1.16569 5.01478 1.40569 5.01478C1.58569 5.01478 1.76567 5.01478 1.94567 5.01478C1.95567 5.01478 1.97571 5.00478 1.98571 4.99478C1.99571 4.77478 2.00568 4.55478 2.01568 4.32478C2.03568 3.92478 2.1457 3.83478 2.5357 3.89478C2.8557 3.94478 3.0557 4.12478 3.2257 4.38478C3.6757 5.06478 4.12568 5.74478 4.58569 6.41478C4.74569 6.64478 4.93567 6.86478 5.13567 7.07478C5.34567 7.30478 5.60572 7.43478 5.93572 7.43478C7.12572 7.41478 8.30572 7.40478 9.49572 7.38478C9.80572 7.37478 10.1057 7.34478 10.4057 7.30478C10.8257 7.23478 11.1457 7.00478 11.3557 6.63478C11.6257 6.14478 11.7657 5.60478 11.8057 5.04478C11.9057 3.51478 12.5357 2.26478 13.7857 1.34478C14.0357 1.16478 14.1657 0.924777 14.1657 0.614777C14.1657 0.244777 14.2257 0.184775 14.5757 0.284775C14.7557 0.334775 14.9257 0.314778 15.0857 0.224778C15.2957 0.104778 15.4157 0.134775 15.5157 0.354775C15.6157 0.574775 15.7157 0.654779 15.9657 0.554779C16.2157 0.454779 16.3657 0.594776 16.4357 0.894776C16.4557 0.974776 16.5157 1.07478 16.5757 1.11478C16.9357 1.34478 17.0257 1.53478 16.8957 1.93478C16.8357 2.10478 16.8857 2.22478 17.0157 2.32478C17.1357 2.41478 17.2657 2.49478 17.3757 2.58478C17.4557 2.64478 17.5057 2.74478 17.6057 2.87478C17.3457 2.91478 17.1457 2.96478 16.9457 2.98478C16.7257 3.00478 16.5857 3.10478 16.5557 3.33478C16.5457 3.38478 16.5257 3.43478 16.5157 3.47478C16.3757 4.03478 16.2457 4.14478 15.6757 4.14478C15.3657 4.14478 15.3557 4.14478 15.4357 4.43478C15.7857 5.62478 16.1357 6.81478 16.4957 7.99478C16.7357 8.79478 16.9357 9.60478 16.9457 10.4448C16.9557 11.6948 16.4657 12.7148 15.5457 13.5148C14.9457 14.0348 14.2957 14.4848 13.6557 14.9448C12.9857 15.4348 12.5357 16.0548 12.4057 16.8848C12.3657 17.1648 12.2357 17.3948 12.0157 17.5748C11.8957 17.6748 11.8657 17.7848 11.8957 17.9348C11.9657 18.4448 12.0357 18.9548 12.0957 19.4548C12.1257 19.7448 12.1457 19.7648 12.4257 19.6948C12.8157 19.6048 13.1957 19.5048 13.5957 19.4248C13.7457 19.3948 13.9057 19.4348 14.0557 19.4448C14.0557 19.4748 14.0557 19.5048 14.0657 19.5348C13.9157 19.5648 13.7457 19.6148 13.5757 19.6648Z" fill="#B99051"/>
</svg>