<svg xmlns="http://www.w3.org/2000/svg" width="32" height="11" viewBox="0 0 32 11" fill="none">
  <path d="M12.6044 3.53356C12.6544 3.06356 12.7045 2.51356 12.7545 1.96356C12.7745 1.78356 12.8744 1.65356 13.0244 1.55356C13.1844 1.45356 13.3944 1.49356 13.5444 1.64356C13.7444 1.85356 13.7744 2.11356 13.7844 2.37356C13.8144 2.99356 13.8345 3.60356 13.8645 4.22356C13.8645 4.29356 13.8645 4.36356 13.8745 4.44356C13.9045 4.70356 14.0044 4.81356 14.2644 4.81356C14.7344 4.81356 15.2044 4.78356 15.6744 4.76356C15.7645 4.76356 15.7945 4.70356 15.8045 4.62356C15.8345 4.10356 15.8744 3.57356 15.9044 3.05356C15.9344 2.54356 15.9645 2.02356 16.0045 1.51356C16.0245 1.25356 16.2644 0.983555 16.4644 0.953555C16.6244 0.933555 16.7544 0.983561 16.8544 1.12356C17.0144 1.33356 17.0445 1.58356 17.0645 1.83356C17.1045 2.48356 17.1344 3.12355 17.1744 3.77355C17.1845 3.98355 17.2045 4.20355 17.2545 4.41355C17.3145 4.70355 17.4645 4.84355 17.7545 4.84355C18.1545 4.84355 18.5544 4.81356 18.9544 4.78356C19.0444 4.77356 19.1145 4.71356 19.1145 4.60356C19.1445 3.92356 19.1744 3.23356 19.2144 2.55356C19.2444 2.02356 19.2745 1.49355 19.3145 0.953555C19.3445 0.603555 19.7644 0.363561 20.0244 0.553561C20.2244 0.703561 20.3645 0.903554 20.3745 1.16355C20.3945 1.70355 20.4044 2.23355 20.4244 2.77355C20.4445 3.30355 20.4745 3.83356 20.5045 4.35356C20.5245 4.62356 20.6744 4.76356 20.9544 4.76356C21.2144 4.76356 21.4845 4.76356 21.7445 4.76356C22.0145 4.76356 22.1545 4.62356 22.1845 4.35356C22.3445 3.18356 22.5044 2.01356 22.6644 0.853556C22.6844 0.723556 22.7344 0.593557 22.7744 0.463557C22.8744 0.213557 23.0644 0.0835542 23.3244 0.0935542C23.6544 0.113554 23.9945 0.143555 24.3145 0.203555C26.9645 0.693555 29.2844 1.87356 31.3244 3.62356C31.4344 3.71356 31.5345 3.82356 31.6245 3.93356C31.7945 4.13356 31.8244 4.35356 31.7044 4.58356C31.5944 4.79356 31.4744 4.99356 31.3444 5.19356C31.1944 5.43356 31.1944 5.55356 31.3544 5.78356C31.4744 5.95356 31.5845 6.11356 31.6845 6.29356C31.8545 6.59356 31.8444 6.80356 31.5944 7.05356C31.3244 7.32356 31.0345 7.57356 30.7445 7.81356C28.8545 9.34356 26.7144 10.3036 24.3344 10.7836C24.0544 10.8436 23.7644 10.8936 23.4844 10.9036C23.0544 10.9336 22.8244 10.7736 22.7144 10.3536C22.6244 10.0136 22.5744 9.66356 22.5244 9.30356C22.4144 8.50356 22.3044 7.70356 22.1944 6.90356C22.1844 6.80356 22.1744 6.71356 22.1644 6.61356C22.1344 6.36356 21.9844 6.22356 21.7344 6.22356C21.4644 6.22356 21.1945 6.22356 20.9244 6.22356C20.6644 6.22356 20.5045 6.38356 20.4945 6.64356C20.4545 7.40356 20.4244 8.15355 20.3844 8.91355C20.3644 9.22355 20.3645 9.53356 20.3045 9.83356C20.2645 10.0536 20.1544 10.2736 20.0444 10.4736C19.8944 10.7636 19.4545 10.6736 19.3645 10.4036C19.3145 10.2336 19.2844 10.0536 19.2744 9.88356C19.2244 8.81356 19.1745 7.73355 19.1245 6.66355C19.1145 6.40355 18.9644 6.26356 18.6944 6.26356C18.3344 6.26356 17.9644 6.26356 17.6044 6.26356C17.3444 6.26356 17.1845 6.40355 17.1744 6.66355C17.1444 7.12355 17.1344 7.57356 17.1044 8.03356C17.0744 8.58356 17.0445 9.13356 16.9945 9.68356C16.9645 10.0236 16.6044 10.2636 16.3444 10.1136C16.1244 9.99356 15.9744 9.80356 15.9644 9.53356C15.9444 9.11356 15.9344 8.68356 15.9144 8.26356C15.8944 7.70356 15.8644 7.14355 15.8344 6.59355C15.8244 6.39355 15.6644 6.24356 15.4744 6.24356C15.0744 6.23356 14.6744 6.24356 14.2644 6.24356C14.0744 6.24356 13.9144 6.38356 13.8944 6.58356C13.8644 6.95356 13.8544 7.32356 13.8244 7.69356C13.7944 8.12356 13.7644 8.54356 13.7144 8.97356C13.6844 9.25356 13.4245 9.49356 13.1845 9.47356C12.9845 9.46356 12.7644 9.25356 12.7344 8.98356C12.6844 8.55356 12.6444 8.11356 12.6044 7.68356C12.5744 7.34356 12.5644 7.00356 12.5444 6.67356C12.5244 6.37356 12.3844 6.24356 12.0744 6.24356C11.7244 6.24356 11.3844 6.24356 11.0344 6.24356C10.7344 6.24356 10.5944 6.38356 10.5744 6.68356C10.5544 6.97356 10.5345 7.25356 10.4945 7.54356C10.4645 7.76356 10.4544 7.98356 10.2944 8.15356C10.0944 8.37356 9.84441 8.38356 9.63441 8.17356C9.43441 7.98356 9.40445 7.73356 9.36445 7.49356C9.32445 7.19356 9.29447 6.89356 9.25447 6.58356C9.23447 6.41356 9.13443 6.26356 8.96443 6.23356C8.37443 6.12356 7.82446 6.21356 7.37446 6.65356C7.30446 6.72356 7.23445 6.80356 7.17445 6.88355C6.91445 7.29355 6.55444 7.60356 6.16444 7.89356C5.37444 8.49356 4.54444 9.02356 3.60444 9.37356C2.81444 9.66356 1.99442 9.78356 1.14442 9.72356C0.814421 9.70356 0.544423 9.54356 0.334423 9.30356C0.194423 9.15356 0.204416 8.97356 0.264416 8.79356C0.344416 8.54356 0.47444 8.31356 0.66444 8.12356C1.39444 7.38356 2.12445 6.64356 2.86445 5.90356C3.10445 5.66356 3.10443 5.50356 2.90443 5.24356C2.42443 4.63356 1.94444 4.03355 1.35444 3.52355C1.06444 3.27355 0.774458 3.01356 0.494458 2.74356C0.394458 2.65356 0.304458 2.53355 0.244458 2.41355C0.0444576 2.02355 0.194433 1.60355 0.594433 1.41355C0.884433 1.27355 1.20443 1.25356 1.52443 1.26356C2.72443 1.31356 3.83442 1.65356 4.89442 2.21356C5.80442 2.69356 6.57444 3.35356 7.22444 4.14356C7.51444 4.49356 7.84446 4.77356 8.31446 4.81356C8.52446 4.83356 8.73441 4.81356 8.94441 4.79356C9.11441 4.77356 9.22447 4.62355 9.25447 4.45355C9.31447 4.03355 9.36445 3.61355 9.42445 3.20355C9.44445 3.03355 9.55446 2.90356 9.68446 2.79356C9.81446 2.67356 10.0044 2.66356 10.1444 2.76356C10.2844 2.86356 10.4045 3.00356 10.4345 3.18356C10.4845 3.51356 10.5245 3.84356 10.5645 4.17356C10.5745 4.28356 10.5744 4.39356 10.5944 4.50356C10.6144 4.69356 10.7945 4.83356 10.9945 4.83356C11.2945 4.84356 11.5844 4.85356 11.8844 4.86356C11.9144 4.86356 11.9344 4.86356 11.9644 4.86356C12.3444 4.86356 12.5444 4.69356 12.5744 4.31356C12.6244 4.07356 12.6044 3.84356 12.6044 3.53356Z" fill="#103930"/>
</svg>