<svg xmlns="http://www.w3.org/2000/svg" width="16" height="26" viewBox="0 0 16 26" fill="none">
<path d="M0.990234 12.543C0.990234 11.423 1.29023 10.413 2.24023 9.71304C3.57023 8.72304 5.31024 8.76304 6.70024 9.75304C7.39024 10.243 7.71024 10.963 7.98024 11.723C8.31024 12.653 8.45023 13.613 8.55023 14.583C8.77023 16.713 9.66024 18.513 11.0702 20.093C12.5202 21.713 13.9602 23.343 15.4002 24.973C15.4902 25.073 15.5902 25.173 15.6402 25.283C15.6902 25.403 15.7202 25.593 15.6602 25.673C15.6002 25.753 15.4002 25.773 15.2802 25.743C14.7502 25.603 14.2202 25.453 13.7002 25.283C11.1502 24.453 8.75023 23.313 6.61023 21.673C4.42023 20.003 2.68024 17.963 1.62024 15.403C1.24024 14.493 0.990234 13.553 0.990234 12.543Z" fill="#941A1D"/>
<path d="M5.64 7.05291C3.46 6.80291 1.61 7.47291 0 8.99291C0.23 8.54291 0.409987 8.06291 0.689987 7.64291C1.43999 6.49291 1.71999 5.21291 1.64999 3.87291C1.61999 3.31291 1.48999 2.75291 1.35999 2.20291C1.25999 1.80291 1.01999 1.47291 0.649994 1.24291C0.299994 1.02291 0.209988 0.592911 0.409988 0.272911C0.599988 -0.0370885 0.919992 -0.0770901 1.31999 0.12291C1.92999 0.43291 2.28 0.95291 2.56 1.55291C2.94 2.38291 3.05999 3.27291 3.14999 4.17291C3.17999 4.44291 3.18999 4.71291 3.23999 4.98291C3.37999 5.75291 3.75999 6.28291 4.56999 6.48291C4.94999 6.57291 5.30999 6.77291 5.67999 6.92291C5.66999 6.96291 5.66 7.01291 5.64 7.05291Z" fill="#103930"/>
</svg>