<svg xmlns="http://www.w3.org/2000/svg" width="19" height="19" viewBox="0 0 19 19" fill="none">
  <path d="M18.236 6.64227C17.916 3.82227 15.466 -0.657733 11.946 0.892267C10.716 1.43227 10.116 2.69227 9.60599 3.90227C9.45599 4.25227 9.31599 4.60227 9.16599 4.93227C8.26599 6.94227 6.90598 8.47227 4.65598 8.88227C2.52598 9.27227 0.445992 10.3123 0.355992 12.7623C0.275992 15.1623 2.14599 16.9123 4.22599 17.7223C7.90599 19.1623 12.096 18.3523 14.986 15.6423C17.416 13.3723 18.616 9.94227 18.236 6.64227ZM16.136 9.87227C16.006 10.2823 15.626 10.5523 15.216 10.5523C15.126 10.5523 15.026 10.5423 14.936 10.5123C14.426 10.3523 14.146 9.81227 14.296 9.31227C15.096 6.72227 13.406 4.32227 13.396 4.30227C13.086 3.87227 13.186 3.27227 13.616 2.95227C14.046 2.64227 14.646 2.73227 14.956 3.16227C15.046 3.28227 17.216 6.34227 16.136 9.87227Z" fill="#fff"/>
</svg>