<svg xmlns="http://www.w3.org/2000/svg" width="17" height="19" viewBox="0 0 17 19" fill="none">
  <path d="M13.8745 11.8965C13.8745 11.8965 11.7745 7.16651 5.68447 4.42651C6.14447 4.70651 6.54447 5.06651 6.90447 5.37651C8.57447 6.82651 10.0445 8.49651 11.3745 10.2665C12.7045 12.0265 14.0245 13.8965 15.0545 15.8565C15.3445 16.4065 16.4045 18.1065 15.9045 18.7165C15.8545 18.7765 15.7945 18.8065 15.7245 18.8265C15.4745 18.8965 15.1945 18.7365 15.0445 18.5165C14.8945 18.2965 14.8445 18.0265 14.7845 17.7765C14.3745 16.0465 13.4845 14.4565 12.3845 13.0665C12.3245 12.9865 12.2445 12.8965 12.1545 12.8665C12.0645 12.8365 11.9545 12.8665 11.8645 12.8865C10.4645 13.2465 9.17447 13.4265 7.77447 12.9265C6.16447 12.3565 4.74448 11.2965 3.63448 10.0065C1.62448 7.68651 0.304487 4.86651 0.264487 1.77651C0.254487 1.41651 0.334493 1.02651 0.614493 0.786508C0.754493 0.666508 0.934493 0.596508 1.11449 0.536508C3.58449 -0.293492 6.31446 0.336508 8.58446 1.46651C10.4345 2.38651 12.3245 3.60651 13.4945 5.35651C13.9245 6.00651 14.2445 6.72651 14.4045 7.49651C14.6645 8.97651 14.4145 10.5165 13.8745 11.8965Z" fill="#fff"/>
</svg>