<svg width="264" height="264" viewBox="0 0 264 264" fill="none" xmlns="http://www.w3.org/2000/svg">
<circle cx="132" cy="132" r="132" fill="#C5C5C5"/>
<path d="M58 169.07V171.275C58 185.24 69.7811 197 83.7711 197H180.229C194.219 197 206 185.24 206 171.275V169.07H58ZM180.229 193.325H83.0348C71.2537 193.325 61.6816 183.77 60.9453 172.745H201.582C200.846 183.77 191.274 193.325 180.229 193.325Z" fill="#D7D7D7"/>
<path d="M199.373 152.165C199.373 117.62 173.602 89.69 140.468 85.28C142.677 83.075 144.886 79.4 144.886 75.725C144.886 69.11 138.995 63.23 132.368 63.23C125.741 63.23 119.851 69.11 119.851 75.725C119.851 79.4 121.323 82.34 124.269 84.545C90.398 88.22 64.6269 116.885 64.6269 151.43V152.9H200.109V152.165H199.373ZM131.632 67.64C136.05 67.64 140.468 71.315 140.468 76.46C140.468 81.605 136.786 84.545 131.632 84.545C126.478 84.545 122.796 80.87 122.796 75.725C122.796 70.58 127.214 67.64 131.632 67.64ZM67.5721 150.695C68.3085 116.15 97.0249 88.955 131.632 88.955C166.239 88.955 194.955 116.885 195.692 150.695H67.5721Z" fill="#D7D7D7"/>
<path d="M134.577 103.655V107.33C136.05 107.33 166.239 108.065 175.811 140.405L179.493 139.67C169.184 103.655 135.313 103.655 134.577 103.655Z" fill="#D7D7D7"/>
<path d="M80.0896 86.015H86.7164C86.7164 77.93 93.3433 71.315 101.443 71.315V64.7C93.3433 64.7 86.7164 58.085 86.7164 50H80.0896C80.0896 58.085 73.4627 64.7 65.3632 64.7V71.315C73.4627 71.315 80.0896 77.93 80.0896 86.015ZM83.7711 54.41C85.2438 61.025 90.398 66.17 97.7612 68.375C91.1343 69.845 85.9801 74.99 83.7711 82.34C82.2985 75.725 77.1443 70.58 69.7811 68.375C76.4079 66.17 81.5622 61.025 83.7711 54.41Z" fill="#D7D7D7"/>
<path d="M183.91 97.04H190.537C190.537 88.955 197.164 82.34 205.264 82.34V75.725C197.164 75.725 190.537 69.11 190.537 61.025H183.91C183.91 69.11 177.284 75.725 169.184 75.725V81.605C177.284 81.605 183.91 88.22 183.91 97.04ZM186.856 65.435C188.328 72.05 193.483 77.195 200.846 79.4C194.219 80.87 189.065 86.015 186.856 93.365C185.383 86.75 180.229 81.605 172.866 79.4C180.229 77.195 185.383 72.05 186.856 65.435Z" fill="#D7D7D7"/>
</svg>
