<svg width="125" height="23" viewBox="0 0 125 23" fill="none" xmlns="http://www.w3.org/2000/svg">
<path d="M15.2357 19.9072L4.58464 0.00146484H0V2.92907H2.48335L13.2273 22.9937H17.1253L29.5472 0.00146484H25.8919L15.2357 19.9072Z" fill="white"/>
<path d="M90.8353 11.1196C91.8473 10.041 92.3636 8.60129 92.3636 6.83413C92.3636 5.71221 92.157 4.71067 91.7492 3.85839C91.331 2.98685 90.665 2.25013 89.7666 1.6675C88.8941 1.10413 87.7686 0.680396 86.4211 0.405934C85.1097 0.136287 83.5195 0.00146484 81.697 0.00146484H67.1377V2.92907H69.4197V22.9937H72.693V13.609H81.6919C82.0533 13.609 82.3992 13.6042 82.7399 13.5946C82.9723 13.5849 83.1994 13.5753 83.4266 13.5657L90.9954 22.9985H95.1257L86.9374 13.1323C88.6618 12.7134 89.9731 12.0393 90.8353 11.1196ZM89.0335 6.83413C89.0335 7.6816 88.8786 8.35572 88.574 8.84205C88.2797 9.30912 87.7789 9.67987 87.0871 9.9447C86.3333 10.2384 85.3265 10.431 84.0875 10.5273C82.8122 10.6285 81.222 10.6766 79.3531 10.6766H72.693V2.92425H79.4254C81.284 2.92425 82.869 2.98203 84.1443 3.08796C85.373 3.1939 86.3746 3.39614 87.1181 3.69467C87.8099 3.96914 88.2849 4.3399 88.5792 4.82141C88.8838 5.31737 89.0335 5.9963 89.0335 6.83413Z" fill="white"/>
<path d="M100.343 0.00146484V2.88092H111.04V22.9937H114.303V2.88092H125.001V0.00146484H100.343Z" fill="white"/>
<path d="M58.9386 0.00146484H37.9463V2.92907H58.9386V0.00146484Z" fill="white"/>
<path d="M41.4106 12.2993H53.9151V9.41989H37.9463V22.9937H58.9386V20.0662H41.4106V12.2993Z" fill="white"/>
</svg>
