<svg width="20" height="20" viewBox="0 0 20 20" fill="none" xmlns="http://www.w3.org/2000/svg">
<path d="M1.66699 15.1665V15.4165C1.66699 16.9998 3.00033 18.3332 4.58366 18.3332H15.5003C17.0837 18.3332 18.417 16.9998 18.417 15.4165V15.1665H1.66699ZM15.5003 17.9165H4.50033C3.16699 17.9165 2.08366 16.8332 2.00033 15.5832H17.917C17.8337 16.8332 16.7503 17.9165 15.5003 17.9165Z" fill="black"/>
<path d="M17.667 13.2498C17.667 9.33317 14.7503 6.1665 11.0003 5.6665C11.2503 5.4165 11.5003 4.99984 11.5003 4.58317C11.5003 3.83317 10.8337 3.1665 10.0837 3.1665C9.33366 3.1665 8.66699 3.83317 8.66699 4.58317C8.66699 4.99984 8.83366 5.33317 9.16699 5.58317C5.33366 5.99984 2.41699 9.24984 2.41699 13.1665V13.3332H17.7503V13.2498H17.667ZM10.0003 3.6665C10.5003 3.6665 11.0003 4.08317 11.0003 4.6665C11.0003 5.24984 10.5837 5.58317 10.0003 5.58317C9.41699 5.58317 9.00032 5.1665 9.00032 4.58317C9.00032 3.99984 9.50033 3.6665 10.0003 3.6665ZM2.75032 13.0832C2.83366 9.1665 6.08366 6.08317 10.0003 6.08317C13.917 6.08317 17.167 9.24984 17.2503 13.0832H2.75032Z" fill="black"/>
<path d="M10.3337 7.74984V8.1665C10.5003 8.1665 13.917 8.24984 15.0003 11.9165L15.417 11.8332C14.2503 7.74984 10.417 7.74984 10.3337 7.74984Z" fill="black"/>
<path d="M4.16699 5.74984H4.91699C4.91699 4.83317 5.66699 4.08317 6.58366 4.08317V3.33317C5.66699 3.33317 4.91699 2.58317 4.91699 1.6665H4.16699C4.16699 2.58317 3.41699 3.33317 2.50033 3.33317V4.08317C3.41699 4.08317 4.16699 4.83317 4.16699 5.74984ZM4.58366 2.1665C4.75033 2.9165 5.33366 3.49984 6.16699 3.74984C5.41699 3.9165 4.83366 4.49984 4.58366 5.33317C4.41699 4.58317 3.83366 3.99984 3.00032 3.74984C3.75032 3.49984 4.33366 2.9165 4.58366 2.1665Z" fill="black"/>
<path d="M15.917 6.99984H16.667C16.667 6.08317 17.417 5.33317 18.3337 5.33317V4.58317C17.417 4.58317 16.667 3.83317 16.667 2.9165H15.917C15.917 3.83317 15.167 4.58317 14.2503 4.58317V5.24984C15.167 5.24984 15.917 5.99984 15.917 6.99984ZM16.2503 3.4165C16.417 4.1665 17.0003 4.74984 17.8337 4.99984C17.0837 5.1665 16.5003 5.74984 16.2503 6.58317C16.0837 5.83317 15.5003 5.24984 14.667 4.99984C15.5003 4.74984 16.0837 4.1665 16.2503 3.4165Z" fill="black"/>
<path d="M1.66699 15.1665V15.4165C1.66699 16.9998 3.00033 18.3332 4.58366 18.3332H15.5003C17.0837 18.3332 18.417 16.9998 18.417 15.4165V15.1665H1.66699ZM15.5003 17.9165H4.50033C3.16699 17.9165 2.08366 16.8332 2.00033 15.5832H17.917C17.8337 16.8332 16.7503 17.9165 15.5003 17.9165Z" stroke="black" stroke-width="0.25" stroke-linejoin="round"/>
<path d="M17.667 13.2498C17.667 9.33317 14.7503 6.1665 11.0003 5.6665C11.2503 5.4165 11.5003 4.99984 11.5003 4.58317C11.5003 3.83317 10.8337 3.1665 10.0837 3.1665C9.33366 3.1665 8.66699 3.83317 8.66699 4.58317C8.66699 4.99984 8.83366 5.33317 9.16699 5.58317C5.33366 5.99984 2.41699 9.24984 2.41699 13.1665V13.3332H17.7503V13.2498H17.667ZM10.0003 3.6665C10.5003 3.6665 11.0003 4.08317 11.0003 4.6665C11.0003 5.24984 10.5837 5.58317 10.0003 5.58317C9.41699 5.58317 9.00032 5.1665 9.00032 4.58317C9.00032 3.99984 9.50033 3.6665 10.0003 3.6665ZM2.75032 13.0832C2.83366 9.1665 6.08366 6.08317 10.0003 6.08317C13.917 6.08317 17.167 9.24984 17.2503 13.0832H2.75032Z" stroke="black" stroke-width="0.25" stroke-linejoin="round"/>
<path d="M10.3337 7.74984V8.1665C10.5003 8.1665 13.917 8.24984 15.0003 11.9165L15.417 11.8332C14.2503 7.74984 10.417 7.74984 10.3337 7.74984Z" stroke="black" stroke-width="0.25" stroke-linejoin="round"/>
<path d="M4.16699 5.74984H4.91699C4.91699 4.83317 5.66699 4.08317 6.58366 4.08317V3.33317C5.66699 3.33317 4.91699 2.58317 4.91699 1.6665H4.16699C4.16699 2.58317 3.41699 3.33317 2.50033 3.33317V4.08317C3.41699 4.08317 4.16699 4.83317 4.16699 5.74984ZM4.58366 2.1665C4.75033 2.9165 5.33366 3.49984 6.16699 3.74984C5.41699 3.9165 4.83366 4.49984 4.58366 5.33317C4.41699 4.58317 3.83366 3.99984 3.00032 3.74984C3.75032 3.49984 4.33366 2.9165 4.58366 2.1665Z" stroke="black" stroke-width="0.25" stroke-linejoin="round"/>
<path d="M15.917 6.99984H16.667C16.667 6.08317 17.417 5.33317 18.3337 5.33317V4.58317C17.417 4.58317 16.667 3.83317 16.667 2.9165H15.917C15.917 3.83317 15.167 4.58317 14.2503 4.58317V5.24984C15.167 5.24984 15.917 5.99984 15.917 6.99984ZM16.2503 3.4165C16.417 4.1665 17.0003 4.74984 17.8337 4.99984C17.0837 5.1665 16.5003 5.74984 16.2503 6.58317C16.0837 5.83317 15.5003 5.24984 14.667 4.99984C15.5003 4.74984 16.0837 4.1665 16.2503 3.4165Z" stroke="black" stroke-width="0.25" stroke-linejoin="round"/>
</svg>
