<svg width="1440" height="880" viewBox="0 0 1440 880" fill="none" xmlns="http://www.w3.org/2000/svg">
<mask id="mask0_2708_39881" style="mask-type:alpha" maskUnits="userSpaceOnUse" x="0" y="0" width="1440" height="880">
<rect width="1440" height="880" fill="#103930"/>
</mask>
<g mask="url(#mask0_2708_39881)">
<mask id="mask1_2708_39881" style="mask-type:luminance" maskUnits="userSpaceOnUse" x="-30" y="0" width="2049" height="936">
<path d="M2018.36 0H-29.1074V935.669H2018.36V0Z" fill="white"/>
</mask>
<g mask="url(#mask1_2708_39881)">
<path d="M-183.925 -1.36035C-184.053 -1.36035 -184.18 -1.36035 -184.307 -1.36035C-184.434 -1.36035 -184.561 -1.36035 -184.688 -1.36035C-433.821 -1.36035 -636.941 211.737 -640.373 474.911H-637.704C-637.577 474.911 -637.45 474.911 -637.45 474.911H-633.891C-394.799 475.183 -198.67 675.761 -188.12 926.552V932.676H-184.434H-180.748V926.552C-170.198 675.761 25.9311 475.183 265.023 474.911H268.582C268.709 474.911 268.836 474.911 268.836 474.911H271.505C268.328 211.601 65.3349 -1.36035 -183.925 -1.36035ZM-180.493 5.71568C43.4722 7.48469 228.924 183.841 260.447 412.451C230.322 315.292 144.015 244.94 42.3282 244.94C1.01786 244.94 -37.8774 256.643 -71.307 277.054C-93.1697 220.718 -127.235 163.838 -180.493 121.518V5.71568ZM-180.493 130.227C-130.413 171.594 -97.9998 226.297 -77.154 280.456C-100.542 295.561 -121.134 315.156 -138.039 337.881C-148.716 319.374 -162.571 301.82 -180.621 287.396V130.227H-180.493ZM-187.866 5.71568V121.382C-241.124 163.702 -275.19 220.582 -297.052 276.918C-330.609 256.507 -369.377 244.804 -410.687 244.804C-512.375 244.804 -598.681 315.156 -628.806 412.315C-597.283 183.841 -411.831 7.48469 -187.866 5.71568ZM-187.866 130.227V287.532C-205.915 301.956 -219.77 319.374 -230.447 338.017C-247.353 315.292 -267.944 295.833 -291.332 280.592C-270.359 226.297 -237.947 171.594 -187.866 130.227ZM-335.948 586.767C-415.39 513.013 -519.238 468.107 -632.747 467.699C-622.959 346.998 -527.246 252.016 -410.815 252.016C-370.394 252.016 -332.388 263.583 -299.594 283.586C-337.854 386.597 -335.948 485.525 -335.948 487.022V586.767ZM-266.165 668.141C-284.723 640.926 -305.823 615.751 -329.211 593.162V487.022C-329.211 485.525 -331.117 388.366 -293.747 287.26C-270.741 302.365 -250.53 321.824 -234.006 344.549C-267.563 407.961 -266.165 480.354 -266.165 481.307V668.141ZM-187.866 865.59C-199.051 797.143 -223.965 733.594 -259.555 678.211V481.171C-259.555 480.218 -260.826 411.635 -229.685 350.808C-203.373 389.59 -187.866 436.945 -187.866 488.247V865.59ZM-184.18 448.784C-190.154 410.002 -204.771 374.214 -225.998 343.868C-215.703 325.362 -202.102 307.944 -184.434 293.656C-184.307 293.792 -184.18 293.792 -184.052 293.928C-183.925 293.792 -183.798 293.792 -183.671 293.656C-166.003 307.944 -152.53 325.362 -142.107 343.868C-163.588 374.35 -178.206 410.002 -184.18 448.784ZM-108.931 481.171V678.211C-144.522 733.458 -169.435 797.006 -180.621 865.59V488.247C-180.621 436.945 -165.113 389.59 -138.802 350.808C-107.66 411.635 -108.804 480.218 -108.931 481.171ZM-39.1485 487.022V593.162C-62.5365 615.751 -83.6366 640.926 -102.194 668.141V481.171C-102.194 480.218 -100.796 407.825 -134.353 344.413C-117.829 321.688 -97.6185 302.229 -74.6118 287.124C-37.3689 388.366 -39.1485 485.389 -39.1485 487.022ZM-32.5388 586.767V487.158C-32.5388 485.661 -30.6322 386.733 -68.892 283.722C-36.0979 263.719 1.78052 252.152 42.3282 252.152C158.76 252.152 254.473 347.134 264.26 467.835C150.752 468.107 46.9041 513.013 -32.5388 586.767Z" fill="#133C33"/>
</g>
<mask id="mask2_2708_39881" style="mask-type:luminance" maskUnits="userSpaceOnUse" x="-579" y="0" width="2048" height="936">
<path d="M-579 0H1468.47V935.669H-579V0Z" fill="white"/>
</mask>
<g mask="url(#mask2_2708_39881)">
<path d="M1623.28 -1.36035C1623.41 -1.36035 1623.54 -1.36035 1623.67 -1.36035C1623.79 -1.36035 1623.92 -1.36035 1624.05 -1.36035C1873.18 -1.36035 2076.3 211.737 2079.73 474.911H2077.06C2076.94 474.911 2076.81 474.911 2076.81 474.911H2073.25C1834.16 475.183 1638.03 675.761 1627.48 926.552V932.676H1623.79H1620.11V926.552C1609.56 675.761 1413.43 475.183 1174.34 474.911H1170.78C1170.65 474.911 1170.52 474.911 1170.52 474.911H1167.85C1171.03 211.601 1374.02 -1.36035 1623.28 -1.36035ZM1619.85 5.71568C1395.89 7.48469 1210.44 183.841 1178.91 412.451C1209.04 315.292 1295.34 244.94 1397.03 244.94C1438.34 244.94 1477.24 256.643 1510.67 277.054C1532.53 220.718 1566.59 163.838 1619.85 121.518V5.71568ZM1619.85 130.227C1569.77 171.594 1537.36 226.297 1516.51 280.456C1539.9 295.561 1560.49 315.156 1577.4 337.881C1588.08 319.374 1601.93 301.82 1619.98 287.396V130.227H1619.85ZM1627.23 5.71568V121.382C1680.48 163.702 1714.55 220.582 1736.41 276.918C1769.97 256.507 1808.74 244.804 1850.05 244.804C1951.73 244.804 2038.04 315.156 2068.17 412.315C2036.64 183.841 1851.19 7.48469 1627.23 5.71568ZM1627.23 130.227V287.532C1645.27 301.956 1659.13 319.374 1669.81 338.017C1686.71 315.292 1707.3 295.833 1730.69 280.592C1709.72 226.297 1677.31 171.594 1627.23 130.227ZM1775.31 586.767C1854.75 513.013 1958.6 468.107 2072.11 467.699C2062.32 346.998 1966.61 252.016 1850.17 252.016C1809.75 252.016 1771.75 263.583 1738.95 283.586C1777.21 386.597 1775.31 485.525 1775.31 487.022V586.767ZM1705.52 668.141C1724.08 640.926 1745.18 615.751 1768.57 593.162V487.022C1768.57 485.525 1770.48 388.366 1733.11 287.26C1710.1 302.365 1689.89 321.824 1673.37 344.549C1706.92 407.961 1705.52 480.354 1705.52 481.307V668.141ZM1627.23 865.59C1638.41 797.143 1663.32 733.594 1698.91 678.211V481.171C1698.91 480.218 1700.19 411.635 1669.04 350.808C1642.73 389.59 1627.23 436.945 1627.23 488.247V865.59ZM1623.54 448.784C1629.51 410.002 1644.13 374.214 1665.36 343.868C1655.06 325.362 1641.46 307.944 1623.79 293.656C1623.67 293.792 1623.54 293.792 1623.41 293.928C1623.28 293.792 1623.16 293.792 1623.03 293.656C1605.36 307.944 1591.89 325.362 1581.47 343.868C1602.95 374.35 1617.56 410.002 1623.54 448.784ZM1548.29 481.171V678.211C1583.88 733.458 1608.79 797.006 1619.98 865.59V488.247C1619.98 436.945 1604.47 389.59 1578.16 350.808C1547.02 411.635 1548.16 480.218 1548.29 481.171ZM1478.51 487.022V593.162C1501.9 615.751 1523 640.926 1541.55 668.141V481.171C1541.55 480.218 1540.16 407.825 1573.71 344.413C1557.19 321.688 1536.98 302.229 1513.97 287.124C1476.73 388.366 1478.51 485.389 1478.51 487.022ZM1471.9 586.767V487.158C1471.9 485.661 1469.99 386.733 1508.25 283.722C1475.46 263.719 1437.58 252.152 1397.03 252.152C1280.6 252.152 1184.89 347.134 1175.1 467.835C1288.61 468.107 1392.46 513.013 1471.9 586.767Z" fill="#133C33"/>
</g>
<mask id="mask3_2708_39881" style="mask-type:luminance" maskUnits="userSpaceOnUse" x="-30" y="0" width="2049" height="936">
<path d="M2018.36 0H-29.1074V935.669H2018.36V0Z" fill="white"/>
</mask>
<g mask="url(#mask3_2708_39881)">
<path d="M720.451 -0.817322C720.324 -0.817322 720.197 -0.817322 720.069 -0.817322C719.942 -0.817322 719.815 -0.817322 719.688 -0.817322C470.936 -0.817322 268.198 211.872 264.639 474.638H267.308C267.435 474.638 267.562 474.638 267.562 474.638H271.121C509.832 474.91 705.706 675.216 716.129 925.598V931.722H719.815H723.501V925.598C734.051 675.216 929.799 474.91 1168.51 474.638H1172.07C1172.2 474.638 1172.32 474.638 1172.32 474.638H1174.99C1171.94 211.872 969.203 -0.817322 720.451 -0.817322ZM723.756 6.25871C947.34 8.02772 1132.54 184.112 1164.06 412.314C1133.94 315.291 1047.76 245.075 946.323 245.075C905.013 245.075 866.245 256.777 832.815 277.053C810.952 220.853 776.887 163.973 723.756 121.652V6.25871ZM723.756 130.634C773.836 171.865 806.122 226.568 826.968 280.727C803.58 295.832 783.115 315.291 766.21 338.016C755.533 319.509 741.678 301.955 723.756 287.667V130.634ZM716.51 6.25871V121.652C663.379 163.836 629.314 220.717 607.451 277.053C573.894 256.777 535.253 245.075 493.943 245.075C392.51 245.075 306.203 315.291 276.206 412.314C307.729 184.112 492.926 8.02772 716.51 6.25871ZM716.51 130.634V287.667C698.588 301.955 684.733 319.509 674.056 338.016C657.151 315.291 636.686 295.832 613.298 280.727C634.144 226.568 666.43 171.865 716.51 130.634ZM568.683 586.357C489.367 512.739 385.773 467.97 272.392 467.562C282.18 347.133 377.765 252.287 493.943 252.287C534.364 252.287 572.242 263.853 604.909 283.857C566.776 386.731 568.556 485.524 568.683 487.021V586.357ZM638.211 667.595C619.781 640.38 598.681 615.206 575.293 592.753V486.748C575.293 485.252 573.386 388.364 610.629 287.395C633.635 302.499 653.846 321.959 670.243 344.547C636.686 407.823 638.084 480.081 638.084 481.033V667.595H638.211ZM716.51 864.772C705.325 796.461 680.411 732.913 644.948 677.801V481.033C644.948 480.081 643.677 411.634 674.692 350.943C700.876 389.589 716.383 436.944 716.383 488.109V864.772H716.51ZM720.197 448.647C714.222 409.865 699.605 374.212 678.505 343.867C688.801 325.36 702.274 307.943 719.942 293.791C720.069 293.927 720.197 293.927 720.324 294.063C720.451 293.927 720.578 293.927 720.705 293.791C738.373 308.079 751.847 325.497 762.142 343.867C740.788 374.348 726.171 410.001 720.197 448.647ZM795.318 480.897V677.665C759.854 732.913 734.941 796.325 723.756 864.636V487.973C723.756 436.808 739.263 389.453 765.447 350.807C796.589 411.498 795.318 479.945 795.318 480.897ZM864.973 486.748V592.753C841.585 615.342 820.485 640.38 802.055 667.595V481.033C802.055 480.081 803.453 407.823 769.896 344.547C786.293 321.959 806.503 302.499 829.51 287.395C866.753 388.364 864.973 485.252 864.973 486.748ZM871.583 586.357V486.885C871.583 485.388 873.49 386.595 835.357 283.721C868.024 263.717 905.902 252.151 946.323 252.151C1062.5 252.151 1158.09 346.997 1167.87 467.425C1054.49 467.97 950.899 512.739 871.583 586.357Z" fill="#133C33"/>
</g>
<mask id="mask4_2708_39881" style="mask-type:luminance" maskUnits="userSpaceOnUse" x="-30" y="0" width="2049" height="936">
<path d="M2018.36 0H-29.1074V935.669H2018.36V0Z" fill="white"/>
</mask>
<g mask="url(#mask4_2708_39881)">
<path d="M268.814 -468.786C268.687 -468.786 268.56 -468.786 268.433 -468.786C268.306 -468.786 268.178 -468.786 268.051 -468.786C19.2995 -468.786 -183.439 -256.097 -186.998 6.66845H-184.329C-184.202 6.66845 -184.075 6.66845 -184.075 6.66845H-180.515C58.449 6.80453 254.324 207.111 264.747 457.493V463.617H268.433H272.119V457.493C282.669 207.111 478.416 6.8045 717.127 6.53234H720.686C720.813 6.53234 720.94 6.53234 720.94 6.53234H723.609C720.304 -256.097 517.566 -468.786 268.814 -468.786ZM272.119 -461.71C495.703 -459.941 680.901 -283.993 712.424 -55.6551C682.299 -152.678 596.119 -222.894 494.686 -222.894C453.376 -222.894 414.608 -211.192 381.178 -190.916C359.315 -247.116 325.25 -303.997 272.119 -346.317V-461.71ZM272.119 -337.336C322.2 -296.104 354.485 -241.401 375.331 -187.242C351.943 -172.137 331.479 -152.678 314.573 -129.953C303.896 -148.46 290.041 -166.014 272.119 -180.302V-337.336ZM264.747 -461.71V-346.317C211.615 -304.133 177.55 -247.252 155.687 -190.916C122.13 -211.192 83.4894 -222.894 42.1791 -222.894C-59.2537 -222.894 -145.561 -152.678 -175.558 -55.6551C-144.035 -283.993 41.1622 -459.941 264.747 -461.71ZM264.747 -337.336V-180.302C246.824 -166.014 232.969 -148.46 222.292 -129.953C205.387 -152.678 184.922 -172.137 161.534 -187.242C182.38 -241.537 214.793 -296.104 264.747 -337.336ZM116.919 118.252C37.7303 44.634 -65.9905 -0.135462 -179.372 -0.543694C-169.584 -120.972 -73.9983 -215.818 42.1791 -215.818C82.5997 -215.818 120.478 -204.252 153.145 -184.248C115.012 -81.3738 116.792 17.4185 116.919 18.9154V118.252ZM186.575 199.49C168.144 172.275 147.044 147.1 123.656 124.648V18.6432C123.656 17.1464 121.749 -79.7408 158.992 -180.71C181.999 -165.606 202.209 -146.147 218.606 -123.558C185.049 -60.2817 186.448 11.9755 186.448 12.928V199.49H186.575ZM264.747 396.667C253.561 328.356 228.648 264.808 193.184 209.696V12.928C193.184 11.9755 191.913 -56.4716 222.928 -117.162C249.112 -78.5161 264.619 -31.1611 264.619 20.004V396.667H264.747ZM268.433 -19.3224C262.459 -58.1045 247.841 -93.7568 226.741 -124.102C237.037 -142.609 250.51 -160.027 268.178 -174.179C268.306 -174.043 268.433 -174.043 268.56 -173.906C268.687 -174.043 268.814 -174.043 268.941 -174.179C286.609 -159.89 300.083 -142.473 310.379 -124.102C289.024 -93.7568 274.407 -58.1045 268.433 -19.3224ZM343.681 12.928V209.696C308.218 264.944 283.304 328.356 272.119 396.667V20.004C272.119 -31.1611 287.626 -78.5161 313.811 -117.162C344.952 -56.6076 343.681 11.9755 343.681 12.928ZM413.21 18.6432V124.648C389.822 147.237 368.722 172.275 350.291 199.49V12.928C350.291 11.9755 351.689 -60.2817 318.132 -123.558C334.529 -146.147 354.74 -165.606 377.746 -180.71C415.116 -79.7408 413.21 17.1464 413.21 18.6432ZM419.946 118.252V18.7793C419.946 17.2825 421.853 -81.5098 383.72 -184.384C416.387 -204.388 454.266 -215.954 494.686 -215.954C610.864 -215.954 706.449 -121.108 716.237 -0.679749C602.856 -0.135439 499.135 44.634 419.946 118.252Z" fill="#133C33"/>
</g>
<mask id="mask5_2708_39881" style="mask-type:luminance" maskUnits="userSpaceOnUse" x="-579" y="0" width="2048" height="936">
<path d="M-579 0H1468.47V935.669H-579V0Z" fill="white"/>
</mask>
<g mask="url(#mask5_2708_39881)">
<path d="M1170.55 -468.786C1170.67 -468.786 1170.8 -468.786 1170.93 -468.786C1171.06 -468.786 1171.18 -468.786 1171.31 -468.786C1420.06 -468.786 1622.8 -256.097 1626.36 6.66845H1623.69C1623.56 6.66845 1623.44 6.66845 1623.44 6.66845H1619.88C1380.91 6.80453 1185.04 207.111 1174.61 457.493V463.617H1170.93H1167.24V457.493C1156.69 207.111 960.945 6.8045 722.235 6.53234H718.676C718.548 6.53234 718.421 6.53234 718.421 6.53234H715.752C719.057 -256.097 921.795 -468.786 1170.55 -468.786ZM1167.24 -461.71C943.658 -459.941 758.461 -283.993 726.938 -55.6551C757.062 -152.678 843.242 -222.894 944.675 -222.894C985.985 -222.894 1024.75 -211.192 1058.18 -190.916C1080.05 -247.116 1114.11 -303.997 1167.24 -346.317V-461.71ZM1167.24 -337.336C1117.16 -296.104 1084.88 -241.401 1064.03 -187.242C1087.42 -172.137 1107.88 -152.678 1124.79 -129.953C1135.47 -148.46 1149.32 -166.014 1167.24 -180.302V-337.336ZM1174.61 -461.71V-346.317C1227.75 -304.133 1261.81 -247.252 1283.67 -190.916C1317.23 -211.192 1355.87 -222.894 1397.18 -222.894C1498.62 -222.894 1584.92 -152.678 1614.92 -55.6551C1583.4 -283.993 1398.2 -459.941 1174.61 -461.71ZM1174.61 -337.336V-180.302C1192.54 -166.014 1206.39 -148.46 1217.07 -129.953C1233.97 -152.678 1254.44 -172.137 1277.83 -187.242C1256.98 -241.537 1224.57 -296.104 1174.61 -337.336ZM1322.44 118.252C1401.63 44.634 1505.35 -0.135462 1618.73 -0.543694C1608.95 -120.972 1513.36 -215.818 1397.18 -215.818C1356.76 -215.818 1318.88 -204.252 1286.22 -184.248C1324.35 -81.3738 1322.57 17.4185 1322.44 18.9154V118.252ZM1252.79 199.49C1271.22 172.275 1292.32 147.1 1315.71 124.648V18.6432C1315.71 17.1464 1317.61 -79.7408 1280.37 -180.71C1257.36 -165.606 1237.15 -146.147 1220.76 -123.558C1254.31 -60.2817 1252.91 11.9755 1252.91 12.928V199.49H1252.79ZM1174.61 396.667C1185.8 328.356 1210.71 264.808 1246.18 209.696V12.928C1246.18 11.9755 1247.45 -56.4716 1216.43 -117.162C1190.25 -78.5161 1174.74 -31.1611 1174.74 20.004V396.667H1174.61ZM1170.93 -19.3224C1176.9 -58.1045 1191.52 -93.7568 1212.62 -124.102C1202.32 -142.609 1188.85 -160.027 1171.18 -174.179C1171.06 -174.043 1170.93 -174.043 1170.8 -173.906C1170.67 -174.043 1170.55 -174.043 1170.42 -174.179C1152.75 -159.89 1139.28 -142.473 1128.98 -124.102C1150.34 -93.7568 1164.95 -58.1045 1170.93 -19.3224ZM1095.68 12.928V209.696C1131.14 264.944 1156.06 328.356 1167.24 396.667V20.004C1167.24 -31.1611 1151.74 -78.5161 1125.55 -117.162C1094.41 -56.6076 1095.68 11.9755 1095.68 12.928ZM1026.15 18.6432V124.648C1049.54 147.237 1070.64 172.275 1089.07 199.49V12.928C1089.07 11.9755 1087.67 -60.2817 1121.23 -123.558C1104.83 -146.147 1084.62 -165.606 1061.62 -180.71C1024.25 -79.7408 1026.15 17.1464 1026.15 18.6432ZM1019.41 118.252V18.7793C1019.41 17.2825 1017.51 -81.5098 1055.64 -184.384C1022.97 -204.388 985.096 -215.954 944.675 -215.954C828.498 -215.954 732.912 -121.108 723.124 -0.679749C836.505 -0.135439 940.226 44.634 1019.41 118.252Z" fill="#133C33"/>
</g>
<mask id="mask6_2708_39881" style="mask-type:luminance" maskUnits="userSpaceOnUse" x="-30" y="0" width="2049" height="936">
<path d="M2018.36 0H-29.1074V935.669H2018.36V0Z" fill="white"/>
</mask>
<g mask="url(#mask6_2708_39881)">
<path d="M268.461 467.698C268.333 467.698 268.206 467.698 268.079 467.698C267.952 467.698 267.825 467.698 267.698 467.698C18.946 467.698 -183.793 680.388 -187.352 943.153H-184.682C-184.555 943.153 -184.428 943.153 -184.428 943.153H-180.869C57.8413 943.425 253.716 1143.73 264.139 1394.11V1400.24H267.825H271.511V1394.11C282.061 1143.73 477.809 943.425 716.519 943.153H720.078C720.205 943.153 720.332 943.153 720.332 943.153H723.002C720.078 680.388 517.34 467.698 268.461 467.698ZM271.893 474.911C495.477 476.68 680.674 652.764 712.197 880.966C682.073 783.943 595.893 713.727 494.46 713.727C453.15 713.727 414.381 725.429 380.952 745.705C359.089 689.505 325.024 632.624 271.893 590.304V474.911ZM271.893 599.149C321.973 640.381 354.259 695.084 375.105 749.243C351.717 764.347 331.252 783.806 314.347 806.531C303.67 788.025 289.815 770.471 271.893 756.183V599.149ZM264.52 474.911V590.304C211.389 632.488 177.324 689.369 155.461 745.705C121.904 725.429 83.2631 713.727 41.9527 713.727C-59.4801 713.727 -145.787 783.943 -175.785 880.966C-144.262 652.628 40.9358 476.543 264.52 474.911ZM264.52 599.149V756.183C246.598 770.471 232.743 788.025 222.066 806.531C205.16 783.806 184.696 764.347 161.308 749.243C182.154 695.084 214.439 640.381 264.52 599.149ZM116.693 1054.87C37.3768 981.255 -66.2169 936.485 -179.598 936.077C-169.811 815.649 -74.2247 720.803 41.9527 720.803C82.3733 720.803 120.252 732.369 152.919 752.373C114.786 855.247 116.566 954.039 116.693 955.536V1054.87ZM186.348 1136.11C167.918 1108.9 146.817 1083.72 123.429 1061.27V955.264C123.429 953.767 121.523 856.88 158.766 755.911C181.772 771.015 201.983 790.474 218.38 813.063C184.823 876.339 186.221 948.596 186.221 949.549V1136.11H186.348ZM264.52 1333.29C253.335 1264.98 228.421 1201.43 192.958 1146.32V949.549C192.958 948.596 191.687 880.149 222.701 819.459C248.886 858.105 264.393 905.46 264.393 956.625V1333.29H264.52ZM268.206 917.162C262.232 878.38 247.615 842.728 226.515 812.383C236.81 793.876 250.284 776.458 267.952 762.306C268.079 762.442 268.206 762.442 268.333 762.578C268.461 762.442 268.588 762.442 268.715 762.306C286.383 776.594 299.856 794.012 310.152 812.383C288.798 842.864 274.18 878.516 268.206 917.162ZM343.455 949.413V1146.18C307.991 1201.43 283.078 1264.84 271.893 1333.15V956.489C271.893 905.324 287.4 857.969 313.584 819.323C344.599 880.013 343.455 948.46 343.455 949.413ZM412.983 955.264V1061.27C389.595 1083.86 368.495 1108.9 350.064 1136.11V949.549C350.064 948.596 351.463 876.339 317.906 813.063C334.303 790.474 354.513 771.015 377.52 755.911C414.89 856.88 412.983 953.767 412.983 955.264ZM419.72 1054.87V955.4C419.72 953.903 421.627 855.111 383.494 752.236C416.161 732.233 454.039 720.666 494.46 720.666C610.637 720.666 706.223 815.512 716.011 935.941C602.63 936.485 498.909 981.255 419.72 1054.87Z" fill="#133C33"/>
<path d="M1171.58 467.698C1171.45 467.698 1171.33 467.698 1171.2 467.698C1171.07 467.698 1170.94 467.698 1170.82 467.698C922.065 467.698 719.327 680.388 715.768 943.153H718.437C718.564 943.153 718.691 943.153 718.691 943.153H722.25C960.96 943.425 1156.84 1143.73 1167.26 1394.11V1400.24H1170.94H1174.63V1394.11C1185.18 1143.73 1380.93 943.425 1619.64 943.153H1623.2C1623.32 943.153 1623.45 943.153 1623.45 943.153H1626.12C1623.2 680.388 1420.46 467.698 1171.58 467.698ZM1175.01 474.911C1398.6 476.68 1583.79 652.764 1615.32 880.966C1585.19 783.943 1499.01 713.727 1397.58 713.727C1356.27 713.727 1317.5 725.429 1284.07 745.705C1262.21 689.505 1228.14 632.624 1175.01 590.304V474.911ZM1175.01 599.149C1225.09 640.381 1257.38 695.084 1278.22 749.243C1254.84 764.347 1234.37 783.806 1217.47 806.531C1206.79 788.025 1192.93 770.471 1175.01 756.183V599.149ZM1167.64 474.911V590.304C1114.51 632.488 1080.44 689.369 1058.58 745.705C1025.02 725.429 986.382 713.727 945.072 713.727C843.639 713.727 757.332 783.943 727.334 880.966C758.857 652.628 944.055 476.543 1167.64 474.911ZM1167.64 599.149V756.183C1149.72 770.471 1135.86 788.025 1125.18 806.531C1108.28 783.806 1087.81 764.347 1064.43 749.243C1085.27 695.084 1117.56 640.381 1167.64 599.149ZM1019.81 1054.87C940.496 981.255 836.902 936.485 723.521 936.077C733.309 815.649 828.894 720.803 945.072 720.803C985.492 720.803 1023.37 732.369 1056.04 752.373C1017.91 855.247 1019.68 954.039 1019.81 955.536V1054.87ZM1089.47 1136.11C1071.04 1108.9 1049.94 1083.72 1026.55 1061.27V955.264C1026.55 953.767 1024.64 856.88 1061.88 755.911C1084.89 771.015 1105.1 790.474 1121.5 813.063C1087.94 876.339 1089.34 948.596 1089.34 949.549V1136.11H1089.47ZM1167.64 1333.29C1156.45 1264.98 1131.54 1201.43 1096.08 1146.32V949.549C1096.08 948.596 1094.81 880.149 1125.82 819.459C1152 858.105 1167.51 905.46 1167.51 956.625V1333.29H1167.64ZM1171.33 917.162C1165.35 878.38 1150.73 842.728 1129.63 812.383C1139.93 793.876 1153.4 776.458 1171.07 762.306C1171.2 762.442 1171.33 762.442 1171.45 762.578C1171.58 762.442 1171.71 762.442 1171.83 762.306C1189.5 776.594 1202.98 794.012 1213.27 812.383C1191.92 842.864 1177.3 878.516 1171.33 917.162ZM1246.45 949.413V1146.18C1210.98 1201.43 1186.07 1264.84 1174.88 1333.15V956.489C1174.88 905.324 1190.39 857.969 1216.58 819.323C1247.72 880.013 1246.57 948.46 1246.45 949.413ZM1316.1 955.264V1061.27C1292.71 1083.86 1271.61 1108.9 1253.18 1136.11V949.549C1253.18 948.596 1254.58 876.339 1221.02 813.063C1237.42 790.474 1257.63 771.015 1280.64 755.911C1317.88 856.88 1316.1 953.767 1316.1 955.264ZM1322.71 1054.87V955.4C1322.71 953.903 1324.62 855.111 1286.49 752.236C1319.15 732.233 1357.03 720.666 1397.45 720.666C1513.63 720.666 1609.22 815.512 1619 935.941C1505.75 936.485 1402.03 981.255 1322.71 1054.87Z" fill="#133C33"/>
</g>
</g>
</svg>
