<svg width="188" height="8" viewBox="0 0 188 8" fill="none" xmlns="http://www.w3.org/2000/svg">
<path d="M187.571 4.00009C187.571 6.01009 185.971 7.64009 183.991 7.67009V7.65009V7.62009C183.991 5.70009 182.481 4.12009 180.601 4.04009H180.551V4.00009V3.97009H180.611C182.491 3.89009 184.001 2.31009 184.001 0.390088V0.360088V0.340088C185.981 0.360088 187.571 2.00009 187.571 4.00009ZM187.521 3.97009C187.511 2.17009 186.181 0.680088 184.471 0.430088C185.201 0.670088 185.731 1.36009 185.731 2.18009C185.731 2.51009 185.641 2.82009 185.491 3.09009C185.911 3.27009 186.341 3.54009 186.651 3.97009H187.521ZM186.591 3.97009C186.281 3.57009 185.871 3.31009 185.461 3.14009C185.351 3.33009 185.201 3.49009 185.031 3.63009C185.171 3.72009 185.301 3.83009 185.411 3.97009H186.591ZM187.521 4.03009H186.651C186.331 4.46009 185.911 4.73009 185.481 4.91009C185.641 5.18009 185.731 5.49009 185.731 5.82009C185.731 6.64009 185.201 7.33009 184.471 7.57009C186.181 7.32009 187.511 5.83009 187.521 4.03009ZM186.591 4.03009H185.411C185.301 4.17009 185.171 4.29009 185.031 4.37009C185.201 4.51009 185.341 4.67009 185.461 4.86009C185.871 4.69009 186.281 4.43009 186.591 4.03009ZM183.161 5.22009C183.711 5.86009 184.051 6.69009 184.051 7.61009C184.961 7.53009 185.671 6.76009 185.671 5.82009C185.671 5.49009 185.581 5.19009 185.431 4.93009C184.661 5.24009 183.911 5.22009 183.901 5.22009H183.161ZM182.551 4.66009C182.751 4.81009 182.941 4.98009 183.111 5.17009H183.911C183.921 5.17009 184.651 5.18009 185.411 4.89009C185.291 4.70009 185.151 4.53009 184.981 4.40009C184.501 4.67009 183.961 4.66009 183.951 4.66009H182.551ZM181.071 4.03009C181.581 4.12009 182.061 4.32009 182.471 4.61009H183.951C183.961 4.61009 184.471 4.62009 184.931 4.37009C184.641 4.16009 184.281 4.03009 183.901 4.03009H181.071ZM184.201 4.00009C184.491 4.05009 184.751 4.17009 184.981 4.34009C185.121 4.25009 185.251 4.15009 185.361 4.00009C185.251 3.86009 185.121 3.75009 184.981 3.66009C184.751 3.84009 184.491 3.95009 184.201 4.00009ZM183.951 3.40009H182.471C182.051 3.69009 181.581 3.89009 181.061 3.98009H183.901C184.281 3.98009 184.641 3.86009 184.931 3.64009C184.471 3.39009 183.961 3.40009 183.951 3.40009ZM183.911 2.84009H183.111C182.941 3.02009 182.751 3.19009 182.551 3.34009H183.951C183.961 3.34009 184.501 3.33009 184.981 3.60009C185.151 3.47009 185.291 3.31009 185.411 3.12009C184.651 2.82009 183.921 2.84009 183.911 2.84009ZM183.161 2.78009H183.911C183.921 2.78009 184.661 2.76009 185.441 3.07009C185.591 2.81009 185.671 2.51009 185.671 2.18009C185.671 1.24009 184.961 0.480088 184.051 0.400088C184.051 1.31009 183.711 2.14009 183.161 2.78009Z" fill="#BB924D" stroke="#BB924D" stroke-width="0.15" stroke-miterlimit="10"/>
<path d="M3.0013 4.00006H181.071" stroke="#BB924D" stroke-width="0.21" stroke-miterlimit="10"/>
<path d="M1.55096 5.45011C0.750151 5.45011 0.100967 4.80092 0.100967 4.00011C0.100967 3.1993 0.750151 2.55011 1.55096 2.55011C2.35178 2.55011 3.00098 3.1993 3.00098 4.00011C3.00098 4.80092 2.35178 5.45011 1.55096 5.45011Z" stroke="#BB924D" stroke-width="0.2" stroke-miterlimit="10"/>
</svg>
