<svg width="104" height="101" viewBox="0 0 104 101" fill="none" xmlns="http://www.w3.org/2000/svg">
<mask id="mask0_825_5" style="mask-type:alpha" maskUnits="userSpaceOnUse" x="0" y="0" width="104" height="101">
<rect width="104" height="100.816" fill="#D9D9D9"/>
</mask>
<g mask="url(#mask0_825_5)">
<path d="M-0.85603 -101.739C-0.885065 -101.739 -0.914095 -101.739 -0.943129 -101.739C-0.972163 -101.739 -1.0012 -101.739 -1.03024 -101.739C-57.8499 -101.739 -104.159 -55.7451 -104.972 1.0781H-104.362C-104.333 1.0781 -104.304 1.0781 -104.304 1.0781H-103.491C-48.9074 1.10753 -4.16591 44.4238 -1.78512 98.5692V99.8934H-0.943129H-0.101139V98.5692C2.30869 44.4238 47.0211 1.10752 101.547 1.04867H102.36C102.389 1.04867 102.418 1.04867 102.418 1.04867H103.028C102.273 -55.7451 55.9636 -101.739 -0.85603 -101.739ZM-0.101139 -100.209C50.9698 -99.8265 93.2724 -61.7776 100.473 -12.3994C93.5918 -33.3807 73.9067 -48.565 50.7375 -48.565C41.3014 -48.565 32.446 -46.0343 24.8101 -41.6497C19.8162 -53.8029 12.0351 -66.1034 -0.101139 -75.2551V-100.209ZM-0.101139 -73.3129C11.3383 -64.3966 18.7129 -52.567 23.4745 -40.8551C18.1322 -37.5888 13.4578 -33.3807 9.59623 -28.4664C7.15737 -32.4685 3.99266 -36.2646 -0.101139 -39.3544V-73.3129ZM-1.78512 -100.209V-75.2551C-13.9214 -66.1328 -21.7025 -53.8324 -26.6963 -41.6497C-34.3613 -46.0343 -43.1877 -48.565 -52.6238 -48.565C-75.7929 -48.565 -95.5071 -33.3807 -102.359 -12.3994C-95.1587 -61.7776 -52.856 -99.8265 -1.78512 -100.209ZM-1.78512 -73.3129V-39.3544C-5.87892 -36.2646 -9.04363 -32.4685 -11.4825 -28.4664C-15.344 -33.3807 -20.0185 -37.5888 -25.3608 -40.8551C-20.5992 -52.5964 -13.1955 -64.3966 -1.78512 -73.3129ZM-35.5517 25.2081C-53.64 9.28818 -77.3317 -0.393248 -103.23 -0.481529C-100.995 -26.5243 -79.1609 -47.0348 -52.6238 -47.0348C-43.3909 -47.0348 -34.7388 -44.5335 -27.277 -40.2078C-35.9872 -17.9611 -35.5808 3.40281 -35.5517 3.72651V25.2081ZM-19.6411 42.7759C-23.851 36.8906 -28.6707 31.4466 -34.0129 26.5912V3.66765C-34.0129 3.34396 -34.4484 -17.6079 -25.9415 -39.4426C-20.6863 -36.1763 -16.0699 -31.9682 -12.3245 -27.0834C-19.9895 -13.3999 -19.6701 2.22574 -19.6701 2.43173V42.7759H-19.6411ZM-1.78512 85.4154C-4.34012 70.6431 -10.0308 56.9008 -18.1313 44.9829V2.43173C-18.1313 2.22574 -18.4216 -12.576 -11.3373 -25.7003C-5.35631 -17.3431 -1.81416 -7.10256 -1.81416 3.96193V85.4154H-1.78512ZM-0.943129 -4.54242C-2.30773 -12.9291 -5.64665 -20.6389 -10.4663 -27.2011C-8.11455 -31.2031 -5.03694 -34.9698 -1.00121 -38.0302C-0.972176 -38.0007 -0.943134 -38.0007 -0.9141 -37.9713C-0.885066 -38.0007 -0.856024 -38.0007 -0.82699 -38.0302C3.20874 -34.9403 6.28634 -31.1737 8.6381 -27.2011C3.76038 -20.6389 0.421472 -12.9291 -0.943129 -4.54242ZM16.245 2.43173V44.9829C8.14453 56.9302 2.45386 70.6431 -0.101139 85.4154V3.96193C-0.101139 -7.10256 3.44101 -17.3431 9.42203 -25.7003C16.5354 -12.6054 16.245 2.22574 16.245 2.43173ZM32.1267 3.66765V26.5912C26.7844 31.476 21.9647 36.8906 17.7548 42.7759V2.43173C17.7548 2.22574 18.0742 -13.3999 10.4092 -27.0834C14.1546 -31.9682 18.771 -36.1763 24.0262 -39.4426C32.5622 -17.6079 32.1267 3.34396 32.1267 3.66765ZM33.6655 25.2081V3.69709C33.6655 3.37339 34.101 -17.9905 25.3908 -40.2372C32.8525 -44.5629 41.5047 -47.0642 50.7375 -47.0642C77.2746 -47.0642 99.1082 -26.5537 101.344 -0.510951C75.4455 -0.393243 51.7537 9.28818 33.6655 25.2081Z" fill="#B99051"/>
</g>
</svg>
