<svg width="288" height="141" viewBox="0 0 288 141" fill="none" xmlns="http://www.w3.org/2000/svg">
<mask id="mask0_825_15" style="mask-type:alpha" maskUnits="userSpaceOnUse" x="0" y="0" width="288" height="141">
<rect width="288" height="141" fill="#D9D9D9"/>
</mask>
<g mask="url(#mask0_825_15)">
<path d="M219.578 159.34H219.255C219.24 159.34 219.224 159.34 219.224 159.34H218.794C189.909 159.371 166.213 182.006 164.939 210.309V211H164.493H164.048V210.309C162.774 182.006 139.078 159.371 110.192 159.34H109.762C109.747 159.34 109.732 159.34 109.732 159.34H109.409C109.824 129.64 134.364 105.592 164.463 105.592C164.478 105.592 164.493 105.592 164.509 105.592C164.524 105.592 164.54 105.592 164.555 105.592C194.623 105.592 219.163 129.625 219.578 159.34ZM164.923 119.443C171.358 124.219 175.473 130.638 178.115 136.996C182.169 134.693 186.853 133.372 191.844 133.372C204.129 133.372 214.556 141.311 218.196 152.276C214.387 126.477 191.966 106.575 164.908 106.375V119.443H164.923ZM164.923 138.194C167.104 139.822 168.778 141.787 170.068 143.891C172.11 141.327 174.598 139.131 177.424 137.411C174.905 131.299 170.989 125.11 164.939 120.457V138.194H164.923ZM110.761 152.291C114.4 141.327 124.843 133.387 137.113 133.387C142.103 133.387 146.803 134.708 150.841 137.011C153.483 130.654 157.598 124.235 164.033 119.459V106.406C136.99 106.59 114.584 126.492 110.761 152.291ZM151.548 137.411C154.373 139.115 156.861 141.327 158.904 143.891C160.194 141.803 161.867 139.822 164.048 138.194V120.442C157.982 125.11 154.082 131.283 151.548 137.411ZM146.158 160.707C146.158 160.538 145.927 149.374 150.55 137.749C146.588 135.491 142.011 134.186 137.113 134.186C123.046 134.186 111.482 144.905 110.3 158.526C124.013 158.572 136.56 163.64 146.158 171.963V160.707ZM154.573 160.046C154.573 159.939 154.404 151.769 158.458 144.613C156.462 142.048 154.02 139.852 151.241 138.148C146.741 149.558 146.956 160.507 146.956 160.691V172.67C149.782 175.219 152.331 178.06 154.573 181.131V160.046ZM164.048 160.845C164.048 155.055 162.175 149.711 158.996 145.335C155.233 152.199 155.387 159.939 155.387 160.046V182.283C159.687 188.518 162.697 195.689 164.048 203.429V160.845ZM169.546 144.567C168.302 142.478 166.659 140.513 164.524 138.9C164.509 138.916 164.493 138.916 164.478 138.931C164.463 138.916 164.447 138.916 164.432 138.9C162.297 140.513 160.67 142.478 159.41 144.567C161.975 147.991 163.741 152.03 164.463 156.407C165.215 152.015 166.981 147.991 169.546 144.567ZM169.976 145.335C166.797 149.711 164.923 155.055 164.923 160.845V203.429C166.275 195.704 169.285 188.533 173.585 182.283V160.046C173.585 159.939 173.738 152.199 169.976 145.335ZM177.731 138.163C174.951 139.868 172.51 142.064 170.513 144.628C174.567 151.785 174.398 159.954 174.398 160.062V181.146C176.641 178.075 179.19 175.234 182.015 172.685V160.707C182.015 160.522 182.23 149.573 177.731 138.163ZM218.672 158.526C217.489 144.905 205.926 134.186 191.859 134.186C186.976 134.186 182.384 135.491 178.422 137.749C183.044 149.374 182.814 160.538 182.814 160.707V171.948C192.412 163.64 204.958 158.572 218.672 158.526Z" fill="#B99051"/>
<path d="M328.82 159.248H328.497C328.482 159.248 328.467 159.248 328.467 159.248H328.037C299.182 159.279 275.532 181.884 274.258 210.14V210.831H273.812H273.367V210.14C272.092 181.884 248.443 159.279 219.603 159.248H219.173C219.158 159.248 219.143 159.248 219.143 159.248H218.82C219.235 129.594 243.729 105.592 273.797 105.592C273.812 105.592 273.828 105.592 273.843 105.592C273.858 105.592 273.874 105.592 273.889 105.592C303.911 105.592 328.405 129.594 328.82 159.248ZM274.258 119.428C280.677 124.189 284.792 130.608 287.434 136.965C291.488 134.677 296.156 133.357 301.147 133.357C313.402 133.357 323.829 141.281 327.453 152.23C323.645 126.477 301.27 106.605 274.258 106.406V119.428ZM274.258 138.148C276.423 139.76 278.097 141.741 279.387 143.83C281.429 141.265 283.902 139.069 286.727 137.365C284.209 131.253 280.308 125.079 274.258 120.426V138.148ZM220.172 152.215C223.811 141.265 234.223 133.341 246.478 133.341C251.468 133.341 256.152 134.662 260.191 136.95C262.832 130.608 266.948 124.189 273.367 119.413V106.39C246.355 106.59 223.98 126.461 220.172 152.215ZM260.897 137.365C263.723 139.069 266.195 141.265 268.238 143.83C269.528 141.741 271.202 139.76 273.367 138.148V120.426C267.332 125.079 263.431 131.253 260.897 137.365ZM255.523 160.63C255.523 160.461 255.292 149.312 259.899 137.703C255.953 135.445 251.376 134.14 246.493 134.14C232.457 134.14 220.909 144.843 219.726 158.434C233.424 158.48 245.955 163.532 255.523 171.84V160.63ZM263.923 159.97C263.923 159.862 263.754 151.708 267.808 144.567C265.827 142.018 263.385 139.822 260.606 138.117C256.106 149.512 256.321 160.446 256.337 160.615V172.577C259.162 175.127 261.711 177.952 263.938 181.024V159.97H263.923ZM273.367 160.753C273.367 154.979 271.494 149.635 268.33 145.273C264.583 152.122 264.721 159.847 264.737 159.954V182.16C269.021 188.395 272.031 195.551 273.382 203.26V160.753H273.367ZM278.865 144.505C277.621 142.417 275.993 140.451 273.858 138.854C273.843 138.87 273.828 138.87 273.812 138.885C273.797 138.87 273.782 138.87 273.766 138.854C271.632 140.467 270.004 142.432 268.76 144.505C271.309 147.93 273.075 151.953 273.797 156.33C274.534 151.953 276.3 147.93 278.865 144.505ZM279.295 145.273C276.131 149.635 274.258 154.979 274.258 160.753V203.26C275.609 195.551 278.619 188.379 282.903 182.16V159.954C282.903 159.847 283.057 152.122 279.295 145.273ZM287.034 138.117C284.255 139.822 281.813 142.018 279.832 144.567C283.886 151.708 283.717 159.862 283.717 159.97V181.024C285.944 177.952 288.493 175.111 291.319 172.577V160.615C291.319 160.446 291.534 149.512 287.034 138.117ZM327.914 158.449C326.731 144.859 315.183 134.155 301.147 134.155C296.264 134.155 291.688 135.46 287.741 137.718C292.348 149.327 292.133 160.476 292.117 160.645V171.871C301.685 163.548 314.216 158.495 327.914 158.449Z" fill="#B99051"/>
<path d="M110 159.248H109.677C109.662 159.248 109.646 159.248 109.646 159.248H109.216C80.3612 159.279 56.712 181.884 55.4374 210.14V210.831H54.9921H54.5467V210.14C53.2721 181.884 29.6229 159.279 0.783153 159.248H0.353169C0.337813 159.248 0.322473 159.248 0.322473 159.248H-2.93621e-06C0.414626 129.594 24.9084 105.592 54.9767 105.592C54.9921 105.592 55.0074 105.592 55.0228 105.592C55.0381 105.592 55.0535 105.592 55.0688 105.592C85.091 105.592 109.585 129.594 110 159.248ZM55.4374 119.428C61.8565 124.189 65.972 130.608 68.6134 136.965C72.6675 134.677 77.3359 133.357 82.3268 133.357C94.5814 133.357 105.009 141.281 108.633 152.23C104.824 126.477 82.4497 106.605 55.4374 106.406V119.428ZM55.4374 138.148C57.6027 139.76 59.2766 141.741 60.5665 143.83C62.609 141.265 65.0814 139.069 67.907 137.365C65.3885 131.253 61.4879 125.079 55.4374 120.426V138.148ZM1.35139 152.215C4.99091 141.265 15.4027 133.341 27.6572 133.341C32.6482 133.341 37.332 134.662 41.3707 136.95C44.0121 130.608 48.1276 124.189 54.5467 119.413V106.39C27.5344 106.59 5.15983 126.461 1.35139 152.215ZM42.0771 137.365C44.9028 139.069 47.3752 141.265 49.4176 143.83C50.7076 141.741 52.3814 139.76 54.5467 138.148V120.426C48.5116 125.079 44.611 131.253 42.0771 137.365ZM36.7023 160.63C36.7023 160.461 36.472 149.312 41.079 137.703C37.1323 135.445 32.556 134.14 27.6726 134.14C13.6367 134.14 2.08849 144.843 0.906032 158.434C14.6041 158.48 27.1351 163.532 36.7023 171.84V160.63ZM45.1024 159.97C45.1024 159.862 44.9335 151.708 48.9876 144.567C47.0066 142.018 44.5649 139.822 41.7854 138.117C37.2859 149.512 37.5009 160.446 37.5162 160.615V172.577C40.3418 175.127 42.8911 177.952 45.1178 181.024V159.97H45.1024ZM54.5467 160.753C54.5467 154.979 52.6732 149.635 49.5097 145.273C45.7627 152.122 45.9009 159.847 45.9163 159.954V182.16C50.2008 188.395 53.2107 195.551 54.5621 203.26V160.753H54.5467ZM60.0444 144.505C58.8005 142.417 57.1727 140.451 55.0381 138.854C55.0228 138.87 55.0074 138.87 54.9921 138.885C54.9767 138.87 54.9614 138.87 54.946 138.854C52.8114 140.467 51.1836 142.432 49.9397 144.505C52.4889 147.93 54.2549 151.953 54.9767 156.33C55.7138 151.953 57.4799 147.93 60.0444 144.505ZM60.4744 145.273C57.3109 149.635 55.4374 154.979 55.4374 160.753V203.26C56.7888 195.551 59.7987 188.379 64.0832 182.16V159.954C64.0832 159.847 64.2368 152.122 60.4744 145.273ZM68.2141 138.117C65.4346 139.822 62.9928 142.018 61.0118 144.567C65.066 151.708 64.8971 159.862 64.8971 159.97V181.024C67.1238 177.952 69.673 175.111 72.4986 172.577V160.615C72.4986 160.446 72.7136 149.512 68.2141 138.117ZM109.093 158.449C107.911 144.859 96.3628 134.155 82.3268 134.155C77.4434 134.155 72.8672 135.46 68.9205 137.718C73.5275 149.327 73.3125 160.476 73.2971 160.645V171.871C82.8643 163.548 95.3953 158.495 109.093 158.449Z" fill="#B99051"/>
<path d="M164.687 105.816H164.364C164.349 105.816 164.334 105.816 164.334 105.816H163.904C135.064 105.847 111.399 128.452 110.14 156.708V157.399H109.695H109.25V156.708C107.975 128.452 84.3258 105.847 55.486 105.816H55.056C55.0407 105.816 55.0254 105.816 55.0254 105.816H54.7028C55.1175 76.1626 79.6113 52.1602 109.68 52.1602C109.695 52.1602 109.71 52.1602 109.726 52.1602C109.741 52.1602 109.756 52.1602 109.772 52.1602C139.779 52.1602 164.272 76.1626 164.687 105.816ZM110.125 65.9811C116.544 70.7417 120.66 77.1607 123.301 83.5184C127.355 81.2303 132.023 79.9096 137.014 79.9096C149.269 79.9096 159.696 87.8336 163.32 98.7829C159.512 73.0298 137.137 53.1583 110.125 52.9587V65.9811ZM110.125 84.7008C112.29 86.3133 113.964 88.2943 115.254 90.3828C117.296 87.8182 119.769 85.6222 122.594 83.9177C120.076 77.8057 116.175 71.6324 110.125 66.9793V84.7008ZM56.0389 98.7829C59.6784 87.8336 70.0902 79.9096 82.3448 79.9096C87.3357 79.9096 92.0195 81.2303 96.0583 83.5184C98.6996 77.1761 102.815 70.757 109.234 65.9811V52.9587C82.2219 53.1583 59.8473 73.0145 56.0389 98.7829ZM96.7646 83.9177C99.5903 85.6222 102.063 87.8182 104.105 90.3828C105.395 88.2943 107.069 86.3133 109.234 84.7008V66.9793C103.184 71.6477 99.2831 77.8057 96.7646 83.9177ZM91.3745 107.183C91.3745 107.014 91.1441 95.8651 95.7511 84.2555C91.8045 81.9981 87.2282 80.6928 82.3448 80.6928C68.3088 80.6928 56.7606 91.3963 55.5782 104.987C69.2763 105.033 81.8073 110.085 91.3745 118.393V107.183ZM99.7899 106.523C99.7899 106.415 99.621 98.2607 103.675 91.1199C101.694 88.5707 99.2524 86.3747 96.4729 84.6701C91.9734 96.0648 92.1884 106.999 92.2037 107.168V119.13C95.0293 121.68 97.5786 124.505 99.8053 127.577V106.523H99.7899ZM109.234 107.321C109.234 101.547 107.361 96.203 104.197 91.8417C100.45 98.6907 100.588 106.415 100.604 106.523V128.728C104.888 134.963 107.898 142.119 109.25 149.828V107.321H109.234ZM114.717 91.0585C113.473 88.97 111.845 87.0043 109.71 85.4073C109.695 85.4226 109.68 85.4226 109.664 85.438C109.649 85.4226 109.633 85.4226 109.618 85.4073C107.484 87.0197 105.856 88.9853 104.612 91.0585C107.161 94.483 108.927 98.5065 109.649 102.883C110.401 98.5065 112.167 94.483 114.717 91.0585ZM115.162 91.8263C111.998 96.1876 110.125 101.532 110.125 107.306V149.813C111.476 142.104 114.486 134.932 118.771 128.713V106.507C118.771 106.415 118.909 98.6754 115.162 91.8263ZM122.902 84.6701C120.122 86.3747 117.68 88.5707 115.699 91.1199C119.753 98.2607 119.585 106.415 119.585 106.523V127.577C121.811 124.505 124.36 121.664 127.186 119.13V107.168C127.171 106.999 127.386 96.0648 122.902 84.6701ZM163.781 105.002C162.598 91.4117 151.05 80.7081 137.014 80.7081C132.131 80.7081 127.555 82.0134 123.608 84.2709C128.215 95.8805 128 107.029 127.985 107.198V118.424C137.552 110.101 150.083 105.048 163.781 105.002Z" fill="#B99051"/>
<path d="M274.097 105.816H273.775C273.759 105.816 273.744 105.816 273.744 105.816H273.314C244.474 105.847 220.81 128.452 219.55 156.708V157.399H219.105H218.66V156.708C217.385 128.452 193.736 105.847 164.896 105.816H164.466C164.451 105.816 164.436 105.816 164.436 105.816H164.113C164.528 76.1626 189.021 52.1602 219.09 52.1602C219.105 52.1602 219.12 52.1602 219.136 52.1602C219.151 52.1602 219.167 52.1602 219.182 52.1602C249.173 52.1602 273.667 76.1626 274.097 105.816ZM219.52 65.9965C225.939 70.757 230.054 77.1761 232.696 83.5337C236.75 81.2456 241.418 79.9249 246.409 79.9249C258.664 79.9249 269.091 87.849 272.715 98.7982C268.907 73.0452 246.532 53.1737 219.52 52.9741V65.9965ZM219.52 84.7162C221.685 86.3286 223.359 88.3097 224.649 90.3982C226.691 87.8336 229.164 85.6376 231.989 83.933C229.471 77.8211 225.57 71.6477 219.52 66.9947V84.7162ZM165.449 98.7829C169.089 87.8336 179.5 79.9096 191.755 79.9096C196.746 79.9096 201.43 81.2303 205.468 83.5184C208.11 77.1761 212.225 70.757 218.644 65.9811V52.9741C191.632 53.1583 169.257 73.0298 165.449 98.7829ZM206.175 83.933C209 85.6376 211.473 87.8336 213.515 90.3982C214.805 88.3097 216.479 86.3286 218.644 84.7162V66.9947C212.594 71.6477 208.693 77.8211 206.175 83.933ZM200.785 107.198C200.785 107.029 200.554 95.8805 205.161 84.2709C201.215 82.0134 196.638 80.7081 191.755 80.7081C177.719 80.7081 166.171 91.4117 164.988 105.002C178.686 105.048 191.217 110.101 200.785 118.409V107.198ZM209.2 106.538C209.2 106.43 209.031 98.2761 213.085 91.1353C211.104 88.5861 208.663 86.3901 205.883 84.6855C201.384 96.0801 201.599 107.014 201.614 107.183V119.146C204.44 121.695 206.989 124.521 209.215 127.592V106.538H209.2ZM218.644 107.321C218.644 101.547 216.771 96.203 213.607 91.8417C209.86 98.6907 209.999 106.415 210.014 106.523V128.728C214.299 134.963 217.308 142.119 218.66 149.828V107.321H218.644ZM224.127 91.0738C222.883 88.9853 221.255 87.0197 219.12 85.4226C219.105 85.438 219.09 85.438 219.074 85.4533C219.059 85.438 219.044 85.438 219.028 85.4226C216.894 87.0351 215.266 89.0007 214.022 91.0738C216.571 94.4984 218.337 98.5218 219.059 102.898C219.812 98.5218 221.578 94.4984 224.127 91.0738ZM224.572 91.8417C221.409 96.203 219.535 101.547 219.535 107.321V149.828C220.886 142.119 223.896 134.948 228.181 128.728V106.523C228.166 106.415 228.319 98.6907 224.572 91.8417ZM232.296 84.6855C229.517 86.3901 227.075 88.5861 225.094 91.1353C229.148 98.2761 228.979 106.43 228.979 106.538V127.592C231.206 124.521 233.755 121.68 236.581 119.146V107.183C236.581 107.014 236.796 96.0801 232.296 84.6855ZM273.176 105.018C271.993 91.427 260.445 80.7235 246.409 80.7235C241.526 80.7235 236.95 82.0288 233.003 84.2862C237.61 95.8958 237.395 107.045 237.379 107.214V118.439C246.962 110.116 259.493 105.064 273.176 105.018Z" fill="#B99051"/>
<path d="M219.39 53.656H219.068C219.052 53.656 219.037 53.656 219.037 53.656H218.607C189.767 53.6868 166.103 76.2917 164.843 104.548V105.239H164.398H163.953V104.548C162.678 76.2917 139.029 53.6868 110.189 53.656H109.759C109.744 53.656 109.728 53.656 109.728 53.656H109.406C109.821 24.0024 134.314 0 164.383 0C164.398 0 164.413 0 164.429 0C164.444 0 164.459 0 164.475 0C194.466 0 218.96 24.0024 219.39 53.656ZM164.813 13.8363C171.232 18.5969 175.347 25.0159 177.989 31.3736C182.043 29.0854 186.711 27.7648 191.702 27.7648C203.957 27.7648 214.384 35.6888 218.008 46.6381C214.2 20.885 191.825 1.01354 164.813 0.813905V13.8363ZM164.813 32.556C166.978 34.1685 168.652 36.1495 169.942 38.238C171.984 35.6734 174.457 33.4774 177.282 31.7729C174.764 25.6609 170.863 19.4876 164.813 14.8345V32.556ZM110.742 46.6227C114.382 35.6734 124.793 27.7494 137.048 27.7494C142.039 27.7494 146.723 29.0701 150.761 31.3582C153.403 25.0159 157.518 18.5969 163.937 13.821V0.813905C136.925 0.998185 114.55 20.8697 110.742 46.6227ZM151.468 31.7729C154.293 33.4774 156.766 35.6734 158.808 38.238C160.098 36.1495 161.772 34.1685 163.937 32.556V14.8345C157.887 19.4876 153.986 25.6609 151.468 31.7729ZM146.078 55.0381C146.078 54.8692 145.847 43.7203 150.454 32.1107C146.508 29.8533 141.931 28.548 137.048 28.548C123.012 28.548 111.464 39.2515 110.281 52.8421C123.979 52.8882 136.51 57.9406 146.078 66.2485V55.0381ZM154.478 54.3778C154.478 54.2703 154.309 46.1159 158.363 38.9751C156.382 36.4259 153.94 34.2299 151.161 32.5253C146.661 43.9199 146.876 54.8539 146.891 55.0228V66.9856C149.717 69.5348 152.266 72.3604 154.493 75.4317V54.3778H154.478ZM163.937 55.161C163.937 49.3869 162.064 44.0428 158.9 39.6815C155.153 46.5306 155.292 54.255 155.307 54.3625V76.5681C159.591 82.8029 162.601 89.9591 163.953 97.6681V55.161H163.937ZM169.42 38.9137C168.176 36.8252 166.548 34.8595 164.413 33.2625C164.398 33.2778 164.383 33.2778 164.367 33.2932C164.352 33.2778 164.337 33.2778 164.321 33.2625C162.187 34.8749 160.559 36.8405 159.315 38.9137C161.864 42.3382 163.63 46.3617 164.352 50.7383C165.089 46.3617 166.87 42.3382 169.42 38.9137ZM169.865 39.6815C166.702 44.0428 164.828 49.3869 164.828 55.161V97.6681C166.179 89.9591 169.189 82.7876 173.474 76.5681V54.3625C173.458 54.255 173.612 46.5306 169.865 39.6815ZM177.589 32.5253C174.81 34.2299 172.368 36.4259 170.387 38.9751C174.441 46.1159 174.272 54.2703 174.272 54.3778V75.4317C176.499 72.3604 179.048 69.5194 181.874 66.9856V55.0228C181.874 54.8539 182.089 43.9199 177.589 32.5253ZM218.469 52.8575C217.286 39.2669 205.738 28.5633 191.702 28.5633C186.819 28.5633 182.242 29.8686 178.296 32.1261C182.903 43.7357 182.688 54.8846 182.672 55.0535V66.2792C192.255 57.9559 204.771 52.9036 218.469 52.8575Z" fill="#B99051"/>
</g>
</svg>
