<svg width="104" height="9" viewBox="0 0 104 9" fill="none" xmlns="http://www.w3.org/2000/svg">
<g clip-path="url(#clip0_837_8)">
<path d="M103.844 4.49523C103.844 6.41473 102.248 7.97135 100.274 8V7.9809V7.95225C100.274 6.11869 98.7682 4.60982 96.8935 4.53342H96.8438V4.49523V4.46658H96.9035C98.7781 4.39018 100.284 2.88131 100.284 1.04775V1.0191V1C102.258 1.0191 103.844 2.58527 103.844 4.49523ZM103.794 4.46658C103.784 2.74761 102.458 1.32469 100.753 1.08595C101.481 1.31514 102.009 1.97408 102.009 2.75716C102.009 3.07231 101.919 3.36835 101.77 3.62619C102.188 3.79809 102.617 4.05593 102.926 4.46658H103.794ZM102.867 4.46658C102.557 4.08458 102.149 3.83629 101.74 3.67394C101.63 3.85539 101.481 4.00819 101.311 4.14188C101.451 4.22783 101.58 4.33288 101.69 4.46658H102.867ZM103.794 4.52387H102.926C102.607 4.93452 102.188 5.19236 101.76 5.36426C101.919 5.6221 102.009 5.91814 102.009 6.23329C102.009 7.01637 101.481 7.67531 100.753 7.9045C102.458 7.66576 103.784 6.24284 103.794 4.52387ZM102.867 4.52387H101.69C101.58 4.65757 101.451 4.77217 101.311 4.84857C101.481 4.98226 101.62 5.13506 101.74 5.31651C102.149 5.15416 102.557 4.90587 102.867 4.52387ZM99.4462 5.6603C99.9946 6.27149 100.334 7.06412 100.334 7.9427C101.241 7.8663 101.949 7.13097 101.949 6.23329C101.949 5.91814 101.859 5.63165 101.71 5.38336C100.942 5.6794 100.194 5.6603 100.184 5.6603H99.4462ZM98.838 5.12551C99.0374 5.26876 99.2268 5.43111 99.3964 5.61255H100.194C100.204 5.61255 100.932 5.6221 101.69 5.34516C101.57 5.16371 101.431 5.00136 101.261 4.87722C100.782 5.13506 100.244 5.12551 100.234 5.12551H98.838ZM97.3622 4.52387C97.8707 4.60982 98.3493 4.80082 98.7582 5.07776H100.234C100.244 5.07776 100.753 5.08731 101.211 4.84857C100.922 4.64802 100.563 4.52387 100.184 4.52387H97.3622ZM100.483 4.49523C100.773 4.54297 101.032 4.65757 101.261 4.81992C101.401 4.73397 101.53 4.63847 101.64 4.49523C101.53 4.36153 101.401 4.25648 101.261 4.17053C101.032 4.34243 100.773 4.44748 100.483 4.49523ZM100.234 3.92224H98.7582C98.3394 4.19918 97.8707 4.39018 97.3522 4.47613H100.184C100.563 4.47613 100.922 4.36153 101.211 4.15143C100.753 3.91269 100.244 3.92224 100.234 3.92224ZM100.194 3.38745H99.3964C99.2268 3.55935 99.0374 3.72169 98.838 3.86494H100.234C100.244 3.86494 100.782 3.85539 101.261 4.11323C101.431 3.98909 101.57 3.83629 101.69 3.65484C100.932 3.36835 100.204 3.38745 100.194 3.38745ZM99.4462 3.33015H100.194C100.204 3.33015 100.942 3.31105 101.72 3.60709C101.869 3.3588 101.949 3.07231 101.949 2.75716C101.949 1.85948 101.241 1.1337 100.334 1.0573C100.334 1.92633 99.9946 2.71896 99.4462 3.33015Z" fill="#BB924D" stroke="#BB924D" stroke-width="0.15" stroke-miterlimit="10"/>
<path d="M3.75583 4.5H96.844" stroke="#BB924D" stroke-width="0.21" stroke-miterlimit="10"/>
<path d="M2.32361 5.88077C1.55107 5.88077 0.924805 5.26081 0.924805 4.49605C0.924805 3.73129 1.55107 3.11133 2.32361 3.11133C3.09615 3.11133 3.72244 3.73129 3.72244 4.49605C3.72244 5.26081 3.09615 5.88077 2.32361 5.88077Z" stroke="#BB924D" stroke-width="0.2" stroke-miterlimit="10"/>
</g>
<defs>
<clipPath id="clip0_837_8">
<rect width="104" height="9" fill="white"/>
</clipPath>
</defs>
</svg>
