<svg width="32" height="21" viewBox="0 0 32 21" fill="none" xmlns="http://www.w3.org/2000/svg">
<path d="M21.8338 13.3699V15.1199C21.8345 15.2824 21.8012 15.4432 21.7361 15.592C21.671 15.7409 21.5756 15.8745 21.4559 15.9843C21.3362 16.0941 21.1948 16.1778 21.0409 16.2298C20.887 16.2819 20.724 16.3012 20.5622 16.2866C18.7671 16.0915 17.0429 15.4781 15.528 14.4957C14.1186 13.6001 12.9236 12.4052 12.028 10.9957C11.0421 9.47393 10.4286 7.74131 10.2372 5.93823C10.2226 5.77692 10.2418 5.61434 10.2934 5.46084C10.3451 5.30735 10.4282 5.1663 10.5374 5.04667C10.6466 4.92705 10.7795 4.83147 10.9277 4.76603C11.0759 4.70059 11.236 4.66671 11.398 4.66656H13.148C13.4311 4.66377 13.7055 4.76402 13.9202 4.94862C14.1348 5.13322 14.275 5.38957 14.3147 5.66989C14.3885 6.22993 14.5255 6.77982 14.723 7.30906C14.8015 7.51785 14.8185 7.74476 14.7719 7.96291C14.7254 8.18105 14.6173 8.38129 14.4605 8.53989L13.7197 9.28073C14.5501 10.7411 15.7593 11.9503 17.2197 12.7807L17.9605 12.0399C18.1191 11.8831 18.3193 11.775 18.5375 11.7284C18.7556 11.6819 18.9825 11.6989 19.1913 11.7774C19.7206 11.9749 20.2705 12.1119 20.8305 12.1857C21.1139 12.2257 21.3726 12.3684 21.5576 12.5868C21.7426 12.8051 21.8409 13.0838 21.8338 13.3699Z" stroke="#1E1E1E" stroke-linecap="round" stroke-linejoin="round"/>
</svg>
